<svg xmlns="http://www.w3.org/2000/svg" xmlns:xlink="http://www.w3.org/1999/xlink" width="500" zoomAndPan="magnify" viewBox="0 0 375 374.999991" height="500" preserveAspectRatio="xMidYMid meet" version="1.0"><defs><g/><clipPath id="6c55b96d78"><path d="M 251.90625 245.324219 L 262.574219 245.324219 L 262.574219 254.484375 L 251.90625 254.484375 Z M 251.90625 245.324219 " clip-rule="nonzero"/></clipPath><clipPath id="37ee8140af"><path d="M 262.570312 249.902344 L 259.902344 254.484375 L 254.574219 254.484375 L 251.90625 249.902344 L 254.574219 245.324219 L 259.902344 245.324219 Z M 262.570312 249.902344 " clip-rule="nonzero"/></clipPath><clipPath id="812f2e6195"><path d="M 0.90625 0.324219 L 11.574219 0.324219 L 11.574219 9.484375 L 0.90625 9.484375 Z M 0.90625 0.324219 " clip-rule="nonzero"/></clipPath><clipPath id="71c976d0df"><path d="M 11.570312 4.902344 L 8.902344 9.484375 L 3.574219 9.484375 L 0.90625 4.902344 L 3.574219 0.324219 L 8.902344 0.324219 Z M 11.570312 4.902344 " clip-rule="nonzero"/></clipPath><clipPath id="e023f8fa09"><rect x="0" width="12" y="0" height="10"/></clipPath><clipPath id="0d6accf95b"><path d="M 123.3125 108.417969 L 225 108.417969 L 225 190 L 123.3125 190 Z M 123.3125 108.417969 " clip-rule="nonzero"/></clipPath></defs><g clip-path="url(#6c55b96d78)"><g clip-path="url(#37ee8140af)"><g transform="matrix(1, 0, 0, 1, 251, 245)"><g clip-path="url(#e023f8fa09)"><g clip-path="url(#812f2e6195)"><g clip-path="url(#71c976d0df)"><path fill="#0e4644" d="M 0.90625 0.324219 L 11.574219 0.324219 L 11.574219 9.484375 L 0.90625 9.484375 Z M 0.90625 0.324219 " fill-opacity="1" fill-rule="nonzero"/></g></g></g></g></g></g><g fill="#0e4644" fill-opacity="1"><g transform="translate(107.565789, 252.742983)"><g><path d="M 2.5 -34.3125 L 13.140625 -34.3125 C 16.359375 -34.3125 18.921875 -33.625 20.828125 -32.25 C 22.742188 -30.882812 23.703125 -28.660156 23.703125 -25.578125 C 23.703125 -22.140625 22.273438 -19.6875 19.421875 -18.21875 C 24.304688 -17.351562 26.75 -14.46875 26.75 -9.5625 C 26.75 -6.675781 25.75 -4.359375 23.75 -2.609375 C 21.75 -0.867188 19.003906 0 15.515625 0 L 2.5 0 Z M 10.3125 -20.875 L 10.9375 -20.875 C 12.6875 -20.875 13.988281 -21.175781 14.84375 -21.78125 C 15.707031 -22.394531 16.140625 -23.398438 16.140625 -24.796875 C 16.140625 -27.117188 14.40625 -28.28125 10.9375 -28.28125 L 10.3125 -28.28125 Z M 10.3125 -6.03125 L 12.765625 -6.03125 C 16.597656 -6.03125 18.515625 -7.304688 18.515625 -9.859375 C 18.515625 -11.378906 18.035156 -12.472656 17.078125 -13.140625 C 16.117188 -13.804688 14.679688 -14.140625 12.765625 -14.140625 L 10.3125 -14.140625 Z M 10.3125 -6.03125 "/></g></g></g><g fill="#0e4644" fill-opacity="1"><g transform="translate(133.351066, 252.742983)"><g><path d="M 0.953125 -17.171875 C 0.953125 -22.140625 2.644531 -26.34375 6.03125 -29.78125 C 9.414062 -33.21875 13.492188 -34.9375 18.265625 -34.9375 C 23.054688 -34.9375 27.128906 -33.222656 30.484375 -29.796875 C 33.835938 -26.378906 35.515625 -22.171875 35.515625 -17.171875 C 35.515625 -12.160156 33.863281 -7.941406 30.5625 -4.515625 C 27.269531 -1.085938 23.171875 0.625 18.265625 0.625 C 13.242188 0.625 9.101562 -1.070312 5.84375 -4.46875 C 2.582031 -7.863281 0.953125 -12.097656 0.953125 -17.171875 Z M 9.40625 -17.171875 C 9.40625 -15.367188 9.679688 -13.726562 10.234375 -12.25 C 10.785156 -10.769531 11.753906 -9.515625 13.140625 -8.484375 C 14.523438 -7.460938 16.234375 -6.953125 18.265625 -6.953125 C 21.171875 -6.953125 23.363281 -7.945312 24.84375 -9.9375 C 26.332031 -11.9375 27.078125 -14.347656 27.078125 -17.171875 C 27.078125 -19.972656 26.320312 -22.378906 24.8125 -24.390625 C 23.300781 -26.398438 21.117188 -27.40625 18.265625 -27.40625 C 15.429688 -27.40625 13.242188 -26.398438 11.703125 -24.390625 C 10.171875 -22.378906 9.40625 -19.972656 9.40625 -17.171875 Z M 9.40625 -17.171875 "/></g></g></g><g fill="#0e4644" fill-opacity="1"><g transform="translate(167.911797, 252.742983)"><g><path d="M 20.75 -7.078125 C 21.945312 -7.078125 23.101562 -7.253906 24.21875 -7.609375 C 25.34375 -7.972656 26.171875 -8.320312 26.703125 -8.65625 L 27.5 -9.1875 L 30.828125 -2.53125 C 30.710938 -2.445312 30.554688 -2.335938 30.359375 -2.203125 C 30.171875 -2.066406 29.722656 -1.8125 29.015625 -1.4375 C 28.304688 -1.0625 27.546875 -0.734375 26.734375 -0.453125 C 25.929688 -0.179688 24.878906 0.0625 23.578125 0.28125 C 22.273438 0.507812 20.929688 0.625 19.546875 0.625 C 16.359375 0.625 13.335938 -0.15625 10.484375 -1.71875 C 7.628906 -3.289062 5.328125 -5.445312 3.578125 -8.1875 C 1.828125 -10.9375 0.953125 -13.90625 0.953125 -17.09375 C 0.953125 -19.507812 1.460938 -21.828125 2.484375 -24.046875 C 3.515625 -26.265625 4.882812 -28.160156 6.59375 -29.734375 C 8.300781 -31.316406 10.289062 -32.578125 12.5625 -33.515625 C 14.832031 -34.460938 17.160156 -34.9375 19.546875 -34.9375 C 21.765625 -34.9375 23.804688 -34.671875 25.671875 -34.140625 C 27.546875 -33.617188 28.875 -33.09375 29.65625 -32.5625 L 30.828125 -31.78125 L 27.5 -25.125 C 27.300781 -25.289062 27.003906 -25.488281 26.609375 -25.71875 C 26.222656 -25.957031 25.445312 -26.269531 24.28125 -26.65625 C 23.125 -27.050781 21.945312 -27.25 20.75 -27.25 C 18.863281 -27.25 17.171875 -26.941406 15.671875 -26.328125 C 14.179688 -25.710938 13 -24.90625 12.125 -23.90625 C 11.25 -22.914062 10.582031 -21.84375 10.125 -20.6875 C 9.664062 -19.539062 9.4375 -18.367188 9.4375 -17.171875 C 9.4375 -14.566406 10.414062 -12.234375 12.375 -10.171875 C 14.332031 -8.109375 17.125 -7.078125 20.75 -7.078125 Z M 20.75 -7.078125 "/></g></g></g><g fill="#0e4644" fill-opacity="1"><g transform="translate(197.315386, 252.742983)"><g><path d="M 10.3125 -13.765625 L 10.3125 0 L 2.5 0 L 2.5 -34.3125 L 10.3125 -34.3125 L 10.3125 -20.625 L 21.375 -20.625 L 21.375 -34.3125 L 29.203125 -34.3125 L 29.203125 0 L 21.375 0 L 21.375 -13.765625 Z M 10.3125 -13.765625 "/></g></g></g><g fill="#0e4644" fill-opacity="1"><g transform="translate(227.093289, 252.742983)"><g><path d="M 2.5 -34.3125 L 15.015625 -34.3125 C 18.503906 -34.3125 21.332031 -33.410156 23.5 -31.609375 C 25.664062 -29.804688 26.75 -27.1875 26.75 -23.75 C 26.75 -20.3125 25.648438 -17.613281 23.453125 -15.65625 C 21.265625 -13.707031 18.453125 -12.734375 15.015625 -12.734375 L 10.3125 -12.734375 L 10.3125 0 L 2.5 0 Z M 10.3125 -18.96875 L 12.515625 -18.96875 C 14.265625 -18.96875 15.703125 -19.320312 16.828125 -20.03125 C 17.953125 -20.738281 18.515625 -21.894531 18.515625 -23.5 C 18.515625 -25.132812 17.953125 -26.304688 16.828125 -27.015625 C 15.703125 -27.722656 14.265625 -28.078125 12.515625 -28.078125 L 10.3125 -28.078125 Z M 10.3125 -18.96875 "/></g></g></g><path fill="#ffffff" d="M 184.949219 126.761719 C 197.890625 126.761719 210.832031 126.757812 223.773438 126.753906 C 224.890625 126.753906 225.960938 126.804688 226.949219 127.417969 C 228.183594 128.183594 228.960938 129.734375 228.714844 131.144531 C 227.824219 136.1875 226.898438 141.226562 226.011719 146.277344 C 224.902344 152.546875 223.796875 158.816406 222.703125 165.085938 C 222.613281 165.589844 222.480469 166.085938 222.359375 166.585938 C 221.839844 168.691406 220.695312 169.734375 218.558594 169.914062 C 214.390625 170.253906 210.21875 170.527344 206.054688 170.875 C 201.605469 171.246094 197.15625 171.671875 192.703125 172.0625 C 190.804688 172.230469 188.90625 172.386719 187.007812 172.527344 C 182.46875 172.867188 177.9375 173.175781 173.40625 173.527344 C 167.78125 173.957031 162.152344 174.40625 156.53125 174.871094 C 155.144531 174.984375 153.761719 175.207031 152.375 175.226562 C 150.398438 175.253906 149.007812 174.167969 148.605469 172.210938 C 147.960938 169.058594 147.429688 165.882812 146.851562 162.71875 C 145.554688 155.589844 144.261719 148.464844 142.96875 141.335938 C 142.382812 138.101562 141.789062 134.863281 141.214844 131.621094 C 140.746094 128.957031 142.492188 126.859375 145.25 126.777344 C 146.425781 126.746094 147.605469 126.773438 148.78125 126.773438 Z M 168.957031 145.234375 L 165.21875 145.234375 C 165.144531 145.234375 165.066406 145.234375 165 145.234375 C 163.140625 145.226562 162.953125 145 163.109375 147.101562 C 163.292969 149.582031 163.460938 152.0625 163.667969 154.542969 C 163.757812 155.617188 164.003906 155.804688 165.050781 155.738281 C 166.804688 155.625 168.554688 155.503906 170.300781 155.375 C 171.464844 155.289062 172.625 155.152344 173.792969 155.082031 C 174.546875 155.039062 175.085938 154.921875 174.773438 153.9375 C 174.648438 153.535156 174.730469 153.0625 174.722656 152.625 C 174.6875 150.503906 174.636719 148.371094 174.632812 146.246094 C 174.632812 145.480469 174.308594 145.214844 173.574219 145.230469 C 172.035156 145.253906 170.5 145.234375 168.957031 145.234375 Z M 185.359375 131.589844 C 183.601562 131.589844 181.84375 131.609375 180.085938 131.578125 C 179.351562 131.570312 179.011719 131.820312 179.050781 132.59375 C 179.183594 135.074219 179.285156 137.558594 179.402344 140.039062 C 179.429688 140.578125 179.730469 140.796875 180.253906 140.796875 C 181.132812 140.789062 182.015625 140.796875 182.890625 140.796875 C 185.3125 140.796875 187.734375 140.785156 190.144531 140.796875 C 190.828125 140.796875 191.308594 140.574219 191.328125 139.832031 C 191.382812 137.339844 191.417969 134.851562 191.449219 132.359375 C 191.449219 131.832031 191.179688 131.578125 190.632812 131.578125 C 188.875 131.597656 187.117188 131.589844 185.359375 131.589844 Z M 202.90625 131.589844 C 201.148438 131.589844 199.390625 131.605469 197.632812 131.589844 C 196.851562 131.578125 196.34375 131.828125 196.332031 132.6875 C 196.292969 135.105469 196.265625 137.519531 196.21875 139.9375 C 196.207031 140.609375 196.558594 140.808594 197.171875 140.804688 C 200.542969 140.796875 203.910156 140.804688 207.28125 140.804688 C 207.777344 140.804688 208.136719 140.625 208.175781 140.074219 C 208.359375 137.597656 208.53125 135.121094 208.722656 132.644531 C 208.78125 131.90625 208.507812 131.574219 207.738281 131.585938 C 206.128906 131.609375 204.515625 131.589844 202.90625 131.589844 Z M 168.148438 131.589844 C 166.390625 131.589844 164.632812 131.566406 162.875 131.597656 C 161.816406 131.613281 161.75 131.652344 161.816406 132.75 C 161.953125 135.085938 162.171875 137.417969 162.34375 139.75 C 162.40625 140.609375 162.917969 140.808594 163.6875 140.808594 C 166.839844 140.785156 169.992188 140.777344 173.140625 140.816406 C 173.984375 140.824219 174.335938 140.546875 174.316406 139.6875 C 174.253906 137.34375 174.203125 135 174.21875 132.65625 C 174.21875 131.722656 173.753906 131.570312 172.988281 131.585938 C 171.375 131.605469 169.761719 131.585938 168.148438 131.589844 Z M 185.429688 145.238281 C 183.816406 145.238281 182.199219 145.253906 180.589844 145.230469 C 179.90625 145.21875 179.457031 145.355469 179.5 146.183594 C 179.632812 148.816406 179.734375 151.453125 179.855469 154.085938 C 179.878906 154.605469 180.125 154.886719 180.683594 154.855469 C 183.316406 154.703125 185.953125 154.574219 188.585938 154.414062 C 189.09375 154.382812 189.59375 154.226562 190.097656 154.179688 C 190.769531 154.117188 190.929688 153.726562 190.933594 153.132812 C 190.953125 150.863281 190.960938 148.578125 191.042969 146.304688 C 191.078125 145.359375 190.617188 145.210938 189.839844 145.226562 C 188.371094 145.253906 186.898438 145.234375 185.429688 145.238281 Z M 201.941406 145.238281 C 200.253906 145.238281 198.566406 145.246094 196.878906 145.238281 C 196.285156 145.238281 195.898438 145.386719 195.894531 146.089844 C 195.871094 148.4375 195.824219 150.78125 195.789062 153.136719 C 195.777344 153.800781 196.089844 154.011719 196.75 153.964844 C 199.019531 153.816406 201.28125 153.71875 203.546875 153.574219 C 204.421875 153.515625 205.289062 153.355469 206.160156 153.292969 C 206.710938 153.25 206.929688 152.945312 207.003906 152.464844 C 207.09375 151.890625 207.199219 151.316406 207.25 150.734375 C 207.386719 149.277344 207.480469 147.816406 207.625 146.363281 C 207.722656 145.40625 207.640625 145.261719 206.566406 145.242188 C 205.027344 145.210938 203.488281 145.234375 201.941406 145.234375 Z M 153.476562 145.238281 C 152.445312 145.238281 151.417969 145.222656 150.386719 145.238281 C 148.890625 145.265625 148.804688 145.289062 149.015625 146.707031 C 149.441406 149.605469 149.957031 152.484375 150.460938 155.367188 C 150.554688 155.890625 150.808594 156.355469 151.46875 156.332031 C 153.523438 156.261719 155.582031 156.242188 157.632812 156.085938 C 158.714844 156 158.84375 155.78125 158.777344 154.652344 C 158.617188 152.089844 158.402344 149.53125 158.195312 146.972656 C 158.179688 146.757812 158.046875 146.550781 158.03125 146.335938 C 157.976562 145.542969 157.648438 145.164062 156.78125 145.21875 C 155.683594 145.285156 154.578125 145.234375 153.476562 145.234375 Z M 175.175781 164.183594 L 175.058594 164.183594 C 175.058594 162.933594 175.070312 161.683594 175.058594 160.433594 C 175.046875 159.691406 174.660156 159.414062 173.90625 159.527344 C 173.039062 159.648438 172.160156 159.691406 171.28125 159.753906 C 169.316406 159.890625 167.335938 160.039062 165.359375 160.132812 C 164.578125 160.167969 164.347656 160.527344 164.40625 161.242188 C 164.601562 163.652344 164.777344 166.066406 164.964844 168.480469 C 165.023438 169.234375 165.582031 169.195312 166.097656 169.160156 C 168.804688 168.984375 171.507812 168.777344 174.214844 168.625 C 175.003906 168.582031 175.199219 168.1875 175.1875 167.496094 C 175.160156 166.386719 175.175781 165.285156 175.175781 164.183594 Z M 151.511719 131.589844 C 150.121094 131.589844 148.730469 131.613281 147.339844 131.582031 C 146.558594 131.5625 146.28125 131.882812 146.417969 132.640625 C 146.855469 135 147.308594 137.359375 147.707031 139.730469 C 147.84375 140.558594 148.28125 140.8125 149.050781 140.804688 C 151.539062 140.789062 154.027344 140.78125 156.511719 140.804688 C 157.316406 140.8125 157.519531 140.425781 157.464844 139.722656 C 157.273438 137.394531 157.085938 135.066406 156.921875 132.738281 C 156.867188 131.929688 156.503906 131.5625 155.679688 131.582031 C 154.289062 131.609375 152.898438 131.589844 151.511719 131.589844 Z M 190.597656 163.195312 C 190.597656 161.824219 190.609375 160.574219 190.597656 159.324219 C 190.597656 158.808594 190.359375 158.597656 189.761719 158.640625 C 187.714844 158.792969 185.65625 158.851562 183.605469 158.980469 C 182.660156 159.039062 181.71875 159.214844 180.773438 159.273438 C 180.089844 159.3125 179.925781 159.660156 179.9375 160.269531 C 179.984375 162.328125 179.992188 164.386719 180.039062 166.445312 C 180.046875 166.804688 180.085938 167.210938 180.261719 167.503906 C 180.414062 167.753906 180.785156 168.035156 181.046875 168.023438 C 182.875 167.9375 184.710938 167.828125 186.53125 167.636719 C 187.820312 167.5 189.09375 167.226562 190.375 167.015625 C 190.445312 165.699219 190.523438 164.386719 190.597656 163.195312 Z M 195.4375 162.707031 L 195.378906 162.707031 C 195.378906 163.660156 195.367188 164.613281 195.378906 165.566406 C 195.398438 166.839844 195.410156 166.898438 196.5625 166.804688 C 199.40625 166.574219 202.246094 166.28125 205.085938 166.019531 C 205.574219 165.976562 205.902344 165.816406 205.945312 165.25 C 206.09375 163.207031 206.304688 161.164062 206.417969 159.125 C 206.492188 157.820312 206.316406 157.710938 205.089844 157.828125 C 204.363281 157.894531 203.632812 157.953125 202.902344 157.976562 C 201.363281 158.039062 199.816406 158.003906 198.28125 158.136719 C 195.480469 158.386719 195.480469 158.425781 195.4375 161.164062 C 195.433594 161.671875 195.441406 162.1875 195.441406 162.699219 Z M 218.820312 131.589844 C 217.644531 131.589844 216.46875 131.574219 215.292969 131.589844 C 213.996094 131.609375 213.898438 131.609375 213.742188 132.847656 C 213.449219 135.167969 213.289062 137.503906 213.058594 139.835938 C 212.996094 140.46875 213.234375 140.796875 213.910156 140.792969 C 216.261719 140.785156 218.609375 140.777344 220.960938 140.804688 C 221.769531 140.8125 222.148438 140.484375 222.28125 139.683594 C 222.671875 137.304688 223.113281 134.933594 223.546875 132.5625 C 223.664062 131.921875 223.484375 131.578125 222.792969 131.585938 C 221.460938 131.597656 220.136719 131.589844 218.820312 131.589844 Z M 160.023438 168.363281 C 159.863281 166.246094 159.710938 164.125 159.535156 162.007812 C 159.511719 161.71875 159.355469 161.441406 159.324219 161.15625 C 159.253906 160.507812 158.921875 160.296875 158.285156 160.347656 C 156.457031 160.488281 154.628906 160.589844 152.800781 160.710938 C 151.660156 160.785156 151.515625 160.921875 151.703125 162.042969 C 152.117188 164.492188 152.582031 166.941406 153.015625 169.390625 C 153.125 169.996094 153.429688 170.3125 154.058594 170.265625 C 155.589844 170.148438 157.125 170.019531 158.660156 169.902344 C 160.097656 169.792969 160.097656 169.796875 160.023438 168.371094 Z M 217.019531 145.234375 C 215.84375 145.234375 214.667969 145.246094 213.492188 145.234375 C 212.84375 145.222656 212.597656 145.523438 212.550781 146.152344 C 212.398438 148.117188 212.203125 150.085938 212.03125 152.0625 C 211.953125 152.917969 212.136719 153.121094 212.9375 153.058594 C 214.105469 152.972656 215.269531 152.847656 216.4375 152.769531 C 217.316406 152.714844 218.210938 152.769531 219.078125 152.648438 C 219.429688 152.597656 219.949219 152.230469 220.011719 151.925781 C 220.40625 150.066406 220.691406 148.183594 221.015625 146.308594 C 221.140625 145.585938 220.898438 145.203125 220.105469 145.226562 C 219.078125 145.257812 218.046875 145.234375 217.019531 145.234375 Z M 212.300781 165.527344 C 213.882812 165.375 215.335938 165.226562 216.796875 165.105469 C 217.386719 165.058594 217.757812 164.804688 217.855469 164.199219 C 218.222656 162.035156 218.601562 159.875 218.933594 157.707031 C 218.960938 157.539062 218.679688 157.148438 218.554688 157.15625 C 216.363281 157.253906 214.167969 157.382812 211.980469 157.539062 C 211.425781 157.582031 211.363281 158.054688 211.324219 158.523438 C 211.1875 160.273438 211.023438 162.023438 210.882812 163.773438 C 210.851562 164.140625 210.769531 164.53125 210.882812 164.863281 C 210.96875 165.128906 211.28125 165.382812 211.550781 165.503906 C 211.800781 165.617188 212.128906 165.527344 212.300781 165.527344 Z M 212.300781 165.527344 " fill-opacity="1" fill-rule="nonzero"/><g clip-path="url(#0d6accf95b)"><path fill="#ffffff" d="M 186.71875 189.414062 C 175.464844 189.414062 164.210938 189.390625 152.957031 189.433594 C 150.6875 189.445312 148.8125 188.78125 147.246094 187.136719 C 145.042969 184.820312 144.878906 181.152344 146.445312 178.320312 C 147.015625 177.292969 147.65625 176.300781 148.15625 175.242188 C 148.40625 174.71875 148.492188 174.167969 148.414062 173.59375 C 146.917969 165.164062 145.359375 156.742188 143.863281 148.3125 C 142.476562 140.527344 141.140625 132.734375 139.769531 124.945312 C 139.316406 122.351562 138.84375 119.757812 138.417969 117.15625 C 138.257812 116.167969 137.8125 115.644531 136.769531 115.472656 C 133.875 115 131 114.425781 128.125 113.894531 C 127.261719 113.734375 126.390625 113.621094 125.53125 113.429688 C 124.171875 113.128906 123.320312 111.996094 123.460938 110.738281 C 123.609375 109.421875 124.820312 108.4375 126.304688 108.621094 C 128.121094 108.847656 129.917969 109.210938 131.71875 109.539062 C 134.890625 110.113281 138.050781 110.722656 141.226562 111.269531 C 141.996094 111.398438 142.363281 111.703125 142.492188 112.5 C 142.847656 114.664062 143.292969 116.8125 143.6875 118.972656 C 144.851562 125.382812 146.027344 131.792969 147.15625 138.207031 C 148.566406 146.210938 149.917969 154.226562 151.320312 162.230469 C 152 166.121094 152.734375 170.003906 153.457031 173.882812 C 153.648438 174.910156 153.625 175.820312 152.988281 176.757812 C 152.132812 178.035156 151.5625 179.5 150.71875 180.785156 C 149.710938 182.320312 150.621094 184.75 152.960938 184.539062 C 153.46875 184.492188 153.988281 184.539062 154.503906 184.539062 L 220.265625 184.539062 C 220.851562 184.539062 221.449219 184.492188 222.027344 184.574219 C 222.339844 184.621094 222.636719 184.722656 222.910156 184.878906 C 223.1875 185.039062 223.421875 185.242188 223.617188 185.492188 C 223.808594 185.742188 223.949219 186.019531 224.039062 186.328125 C 224.125 186.632812 224.148438 186.941406 224.117188 187.257812 C 223.996094 188.585938 223.214844 189.324219 221.804688 189.402344 C 221.222656 189.4375 220.628906 189.414062 220.042969 189.414062 Z M 186.71875 189.414062 " fill-opacity="1" fill-rule="nonzero"/></g><path fill="#ffffff" d="M 205.976562 199.640625 C 205.675781 195.859375 209.304688 191.429688 213.988281 191.503906 C 218.445312 191.574219 222.140625 194.699219 222.203125 199.449219 C 222.265625 203.929688 219.175781 207.726562 214.082031 207.726562 C 208.785156 207.722656 205.796875 203.3125 205.976562 199.640625 Z M 214.148438 195.925781 C 211.949219 195.925781 210.339844 197.503906 210.375 199.640625 C 210.410156 201.6875 212.148438 203.359375 214.25 203.363281 C 215.96875 203.363281 217.867188 201.355469 217.851562 199.546875 C 217.828125 197.617188 216.105469 195.933594 214.144531 195.925781 Z M 214.148438 195.925781 " fill-opacity="1" fill-rule="nonzero"/><path fill="#ffffff" d="M 168.546875 199.667969 C 168.527344 204.101562 164.925781 207.816406 160.664062 207.792969 C 156.019531 207.773438 152.582031 204.179688 152.449219 199.519531 C 152.328125 195.191406 156.234375 191.429688 160.570312 191.464844 C 164.734375 191.503906 168.929688 195.324219 168.546875 199.667969 Z M 164.144531 199.867188 C 164.238281 197.75 162.839844 196.058594 160.898438 195.933594 C 158.679688 195.796875 157.023438 197.238281 156.886719 199.324219 C 156.746094 201.46875 158.179688 203.171875 160.367188 203.289062 C 160.847656 203.320312 161.3125 203.257812 161.765625 203.101562 C 162.222656 202.945312 162.625 202.703125 162.984375 202.382812 C 163.339844 202.058594 163.617188 201.679688 163.820312 201.242188 C 164.019531 200.804688 164.128906 200.347656 164.144531 199.867188 Z M 164.144531 199.867188 " fill-opacity="1" fill-rule="nonzero"/></svg>