<svg xmlns="http://www.w3.org/2000/svg" xmlns:xlink="http://www.w3.org/1999/xlink" width="500" zoomAndPan="magnify" viewBox="0 0 375 374.999991" height="500" preserveAspectRatio="xMidYMid meet" version="1.0"><defs><g/><clipPath id="665c737135"><path d="M 129 161 L 241.742188 161 L 241.742188 223 L 129 223 Z M 129 161 " clip-rule="nonzero"/></clipPath><clipPath id="e355c81df1"><path d="M 106.742188 138 L 236 138 L 236 242 L 106.742188 242 Z M 106.742188 138 " clip-rule="nonzero"/></clipPath><clipPath id="131b66645e"><path d="M 212 243 L 234 243 L 234 264.5625 L 212 264.5625 Z M 212 243 " clip-rule="nonzero"/></clipPath><clipPath id="7977e1a48a"><path d="M 143 243 L 165 243 L 165 264.5625 L 143 264.5625 Z M 143 243 " clip-rule="nonzero"/></clipPath><clipPath id="de67cbe915"><path d="M 18 66 L 23 66 L 23 72 L 18 72 Z M 18 66 " clip-rule="nonzero"/></clipPath><clipPath id="c14d86718d"><path d="M 21.800781 66.5625 L 22.675781 71.292969 L 18.816406 72.007812 L 17.941406 67.277344 Z M 21.800781 66.5625 " clip-rule="nonzero"/></clipPath><clipPath id="26b7efad10"><path d="M 20.746094 71.652344 L 18.609375 70.886719 L 18.148438 68.398438 L 19.871094 66.917969 L 22.007812 67.683594 L 22.46875 70.171875 Z M 20.746094 71.652344 " clip-rule="nonzero"/></clipPath><clipPath id="23b2d82330"><path d="M 0 0.800781 L 4.558594 0.800781 L 4.558594 5.839844 L 0 5.839844 Z M 0 0.800781 " clip-rule="nonzero"/></clipPath><clipPath id="59efda0798"><path d="M 3.800781 0.5625 L 4.675781 5.292969 L 0.816406 6.007812 L -0.0585938 1.277344 Z M 3.800781 0.5625 " clip-rule="nonzero"/></clipPath><clipPath id="6067aa2039"><path d="M 2.746094 5.652344 L 0.609375 4.886719 L 0.148438 2.398438 L 1.871094 0.917969 L 4.007812 1.683594 L 4.46875 4.171875 Z M 2.746094 5.652344 " clip-rule="nonzero"/></clipPath><clipPath id="dae0e99f1e"><rect x="0" width="5" y="0" height="6"/></clipPath><clipPath id="211665296d"><rect x="0" width="36" y="0" height="74"/></clipPath></defs><g clip-path="url(#665c737135)"><path fill="#000000" d="M 185.507812 161.195312 C 202.042969 161.195312 218.578125 161.191406 235.113281 161.183594 C 236.542969 161.183594 237.910156 161.253906 239.175781 162.035156 C 240.75 163.007812 241.746094 164.984375 241.429688 166.78125 C 240.292969 173.214844 239.109375 179.636719 237.976562 186.074219 C 236.554688 194.066406 235.148438 202.058594 233.746094 210.050781 C 233.632812 210.695312 233.464844 211.328125 233.308594 211.960938 C 232.644531 214.648438 231.179688 215.976562 228.449219 216.207031 C 223.125 216.640625 217.796875 216.988281 212.476562 217.429688 C 206.785156 217.902344 201.101562 218.445312 195.414062 218.945312 C 192.988281 219.160156 190.5625 219.359375 188.132812 219.539062 C 182.332031 219.96875 176.546875 220.363281 170.753906 220.808594 C 163.5625 221.363281 156.375 221.933594 149.1875 222.527344 C 147.414062 222.667969 145.648438 222.957031 143.878906 222.980469 C 141.351562 223.015625 139.574219 221.628906 139.0625 219.132812 C 138.234375 215.117188 137.558594 211.066406 136.824219 207.03125 C 135.164062 197.949219 133.507812 188.863281 131.859375 179.777344 C 131.109375 175.652344 130.351562 171.523438 129.617188 167.390625 C 129.015625 163.992188 131.246094 161.324219 134.773438 161.21875 C 136.277344 161.175781 137.78125 161.210938 139.285156 161.210938 Z M 165.066406 184.746094 L 160.289062 184.746094 C 160.195312 184.746094 160.097656 184.746094 160.007812 184.746094 C 157.632812 184.734375 157.394531 184.449219 157.59375 187.128906 C 157.828125 190.289062 158.046875 193.453125 158.308594 196.609375 C 158.425781 197.984375 158.738281 198.222656 160.078125 198.136719 C 162.316406 197.992188 164.554688 197.835938 166.785156 197.675781 C 168.273438 197.5625 169.757812 197.390625 171.246094 197.300781 C 172.214844 197.242188 172.898438 197.09375 172.5 195.839844 C 172.339844 195.328125 172.445312 194.726562 172.433594 194.164062 C 172.390625 191.464844 172.324219 188.746094 172.320312 186.035156 C 172.320312 185.0625 171.90625 184.722656 170.96875 184.738281 C 169.003906 184.773438 167.039062 184.746094 165.066406 184.746094 Z M 186.027344 167.351562 C 183.785156 167.351562 181.535156 167.375 179.292969 167.339844 C 178.347656 167.324219 177.914062 167.648438 177.96875 168.632812 C 178.136719 171.792969 178.269531 174.957031 178.417969 178.121094 C 178.449219 178.8125 178.835938 179.085938 179.503906 179.085938 C 180.628906 179.078125 181.753906 179.085938 182.875 179.085938 C 185.96875 179.085938 189.0625 179.074219 192.140625 179.085938 C 193.015625 179.085938 193.632812 178.804688 193.652344 177.855469 C 193.726562 174.679688 193.769531 171.507812 193.8125 168.332031 C 193.8125 167.660156 193.46875 167.335938 192.769531 167.339844 C 190.523438 167.359375 188.277344 167.351562 186.027344 167.351562 Z M 208.449219 167.351562 C 206.203125 167.351562 203.957031 167.371094 201.710938 167.351562 C 200.714844 167.339844 200.066406 167.652344 200.046875 168.75 C 200 171.835938 199.964844 174.910156 199.90625 177.992188 C 199.890625 178.851562 200.335938 179.101562 201.121094 179.101562 C 205.429688 179.089844 209.734375 179.101562 214.039062 179.101562 C 214.675781 179.101562 215.132812 178.867188 215.183594 178.167969 C 215.421875 175.011719 215.636719 171.855469 215.882812 168.699219 C 215.957031 167.757812 215.609375 167.332031 214.625 167.347656 C 212.566406 167.378906 210.507812 167.351562 208.449219 167.351562 Z M 164.035156 167.351562 C 161.789062 167.351562 159.542969 167.324219 157.296875 167.359375 C 155.941406 167.382812 155.855469 167.429688 155.941406 168.832031 C 156.121094 171.808594 156.398438 174.777344 156.617188 177.753906 C 156.699219 178.847656 157.351562 179.101562 158.335938 179.101562 C 162.359375 179.074219 166.386719 179.066406 170.414062 179.113281 C 171.492188 179.125 171.941406 178.769531 171.914062 177.675781 C 171.839844 174.6875 171.773438 171.695312 171.789062 168.710938 C 171.789062 167.519531 171.195312 167.328125 170.21875 167.34375 C 168.15625 167.371094 166.097656 167.347656 164.035156 167.351562 Z M 186.121094 184.75 C 184.054688 184.75 181.992188 184.769531 179.929688 184.738281 C 179.058594 184.726562 178.488281 184.898438 178.539062 185.953125 C 178.710938 189.3125 178.84375 192.671875 178.992188 196.03125 C 179.023438 196.691406 179.335938 197.050781 180.054688 197.007812 C 183.417969 196.816406 186.785156 196.648438 190.152344 196.445312 C 190.800781 196.40625 191.4375 196.207031 192.085938 196.148438 C 192.941406 196.070312 193.144531 195.570312 193.152344 194.8125 C 193.179688 191.917969 193.183594 189.007812 193.289062 186.109375 C 193.335938 184.90625 192.746094 184.714844 191.753906 184.734375 C 189.875 184.773438 187.996094 184.746094 186.121094 184.75 Z M 207.21875 184.75 C 205.0625 184.75 202.90625 184.757812 200.746094 184.75 C 199.988281 184.75 199.496094 184.941406 199.488281 185.835938 C 199.460938 188.828125 199.402344 191.816406 199.355469 194.816406 C 199.339844 195.664062 199.742188 195.933594 200.585938 195.875 C 203.484375 195.683594 206.375 195.5625 209.269531 195.375 C 210.386719 195.304688 211.496094 195.097656 212.609375 195.015625 C 213.3125 194.964844 213.59375 194.574219 213.6875 193.964844 C 213.800781 193.230469 213.933594 192.496094 214.003906 191.757812 C 214.175781 189.898438 214.296875 188.039062 214.484375 186.183594 C 214.605469 184.964844 214.5 184.78125 213.128906 184.757812 C 211.160156 184.714844 209.195312 184.742188 207.21875 184.742188 Z M 145.285156 184.75 C 143.96875 184.75 142.652344 184.730469 141.335938 184.75 C 139.425781 184.785156 139.316406 184.8125 139.582031 186.625 C 140.128906 190.316406 140.789062 193.988281 141.433594 197.664062 C 141.550781 198.332031 141.878906 198.921875 142.71875 198.890625 C 145.34375 198.800781 147.976562 198.777344 150.59375 198.578125 C 151.980469 198.472656 152.140625 198.191406 152.058594 196.753906 C 151.855469 193.484375 151.578125 190.222656 151.316406 186.960938 C 151.296875 186.6875 151.125 186.421875 151.109375 186.148438 C 151.039062 185.140625 150.617188 184.65625 149.511719 184.722656 C 148.105469 184.8125 146.691406 184.746094 145.285156 184.742188 Z M 173.015625 208.898438 L 172.863281 208.898438 C 172.863281 207.308594 172.878906 205.714844 172.863281 204.125 C 172.847656 203.175781 172.355469 202.824219 171.394531 202.964844 C 170.285156 203.121094 169.160156 203.175781 168.039062 203.253906 C 165.527344 203.425781 162.996094 203.621094 160.472656 203.738281 C 159.472656 203.785156 159.179688 204.242188 159.253906 205.152344 C 159.503906 208.226562 159.726562 211.300781 159.964844 214.375 C 160.039062 215.339844 160.753906 215.289062 161.414062 215.246094 C 164.871094 215.023438 168.328125 214.757812 171.789062 214.5625 C 172.792969 214.503906 173.046875 214.003906 173.03125 213.121094 C 172.992188 211.710938 173.015625 210.304688 173.015625 208.898438 Z M 142.773438 167.351562 C 140.996094 167.351562 139.21875 167.382812 137.445312 167.339844 C 136.445312 167.316406 136.089844 167.726562 136.265625 168.691406 C 136.824219 171.699219 137.40625 174.707031 137.910156 177.726562 C 138.085938 178.785156 138.644531 179.109375 139.632812 179.101562 C 142.8125 179.078125 145.988281 179.070312 149.164062 179.101562 C 150.191406 179.109375 150.453125 178.617188 150.378906 177.71875 C 150.140625 174.753906 149.898438 171.785156 149.691406 168.816406 C 149.617188 167.785156 149.15625 167.320312 148.101562 167.34375 C 146.324219 167.378906 144.546875 167.351562 142.773438 167.351562 Z M 192.71875 207.640625 C 192.71875 205.894531 192.738281 204.300781 192.71875 202.710938 C 192.71875 202.050781 192.417969 201.777344 191.652344 201.835938 C 189.035156 202.03125 186.410156 202.101562 183.789062 202.265625 C 182.578125 202.34375 181.378906 202.566406 180.167969 202.640625 C 179.292969 202.695312 179.082031 203.136719 179.097656 203.910156 C 179.15625 206.535156 179.167969 209.160156 179.230469 211.785156 C 179.242188 212.242188 179.292969 212.761719 179.515625 213.132812 C 179.707031 213.449219 180.183594 213.808594 180.515625 213.792969 C 182.855469 213.6875 185.195312 213.546875 187.523438 213.300781 C 189.171875 213.128906 190.800781 212.78125 192.433594 212.511719 C 192.527344 210.835938 192.628906 209.160156 192.71875 207.640625 Z M 198.90625 207.015625 L 198.832031 207.015625 C 198.832031 208.230469 198.820312 209.449219 198.832031 210.664062 C 198.855469 212.289062 198.871094 212.359375 200.347656 212.242188 C 203.980469 211.949219 207.605469 211.578125 211.234375 211.242188 C 211.859375 211.1875 212.277344 210.984375 212.332031 210.261719 C 212.527344 207.65625 212.792969 205.054688 212.941406 202.449219 C 213.035156 200.789062 212.808594 200.648438 211.242188 200.796875 C 210.3125 200.882812 209.378906 200.960938 208.445312 200.992188 C 206.476562 201.066406 204.5 201.019531 202.542969 201.195312 C 198.960938 201.511719 198.964844 201.5625 198.90625 205.054688 C 198.898438 205.703125 198.910156 206.355469 198.910156 207.011719 Z M 228.785156 167.351562 C 227.28125 167.351562 225.78125 167.332031 224.28125 167.351562 C 222.621094 167.378906 222.5 167.378906 222.296875 168.957031 C 221.921875 171.914062 221.71875 174.894531 221.421875 177.863281 C 221.347656 178.667969 221.648438 179.089844 222.511719 179.085938 C 225.515625 179.074219 228.519531 179.0625 231.523438 179.097656 C 232.554688 179.109375 233.039062 178.691406 233.207031 177.667969 C 233.707031 174.636719 234.269531 171.613281 234.828125 168.589844 C 234.976562 167.773438 234.75 167.335938 233.863281 167.34375 C 232.164062 167.363281 230.46875 167.351562 228.785156 167.351562 Z M 153.65625 214.230469 C 153.449219 211.527344 153.253906 208.828125 153.03125 206.128906 C 153 205.761719 152.796875 205.40625 152.757812 205.042969 C 152.671875 204.214844 152.246094 203.949219 151.429688 204.011719 C 149.097656 204.191406 146.757812 204.320312 144.421875 204.472656 C 142.964844 204.570312 142.777344 204.746094 143.019531 206.171875 C 143.546875 209.296875 144.144531 212.414062 144.699219 215.539062 C 144.835938 216.308594 145.226562 216.714844 146.027344 216.65625 C 147.988281 216.503906 149.949219 216.34375 151.910156 216.195312 C 153.746094 216.054688 153.746094 216.058594 153.65625 214.238281 Z M 226.484375 184.746094 C 224.980469 184.746094 223.480469 184.761719 221.976562 184.746094 C 221.152344 184.730469 220.835938 185.113281 220.773438 185.914062 C 220.578125 188.421875 220.328125 190.929688 220.109375 193.449219 C 220.011719 194.539062 220.246094 194.800781 221.269531 194.71875 C 222.761719 194.609375 224.25 194.449219 225.742188 194.351562 C 226.867188 194.28125 228.007812 194.351562 229.117188 194.195312 C 229.566406 194.128906 230.226562 193.664062 230.308594 193.277344 C 230.8125 190.90625 231.175781 188.507812 231.589844 186.117188 C 231.75 185.191406 231.445312 184.707031 230.429688 184.734375 C 229.113281 184.773438 227.800781 184.746094 226.484375 184.746094 Z M 220.453125 210.613281 C 222.476562 210.421875 224.335938 210.230469 226.199219 210.078125 C 226.957031 210.015625 227.429688 209.691406 227.554688 208.921875 C 228.023438 206.164062 228.503906 203.410156 228.929688 200.648438 C 228.964844 200.429688 228.605469 199.933594 228.449219 199.941406 C 225.644531 200.070312 222.84375 200.234375 220.042969 200.433594 C 219.335938 200.484375 219.257812 201.089844 219.207031 201.683594 C 219.03125 203.917969 218.820312 206.148438 218.640625 208.378906 C 218.605469 208.84375 218.496094 209.34375 218.640625 209.769531 C 218.753906 210.105469 219.152344 210.429688 219.5 210.582031 C 219.816406 210.726562 220.238281 210.613281 220.453125 210.613281 Z M 220.453125 210.613281 " fill-opacity="1" fill-rule="nonzero"/></g><g clip-path="url(#e355c81df1)"><path fill="#000000" d="M 187.765625 241.0625 C 173.386719 241.0625 159 241.035156 144.621094 241.089844 C 141.722656 241.101562 139.328125 240.257812 137.324219 238.160156 C 134.507812 235.210938 134.296875 230.53125 136.300781 226.921875 C 137.03125 225.613281 137.847656 224.347656 138.488281 223 C 138.808594 222.332031 138.917969 221.628906 138.816406 220.898438 C 136.90625 210.148438 134.914062 199.414062 133.003906 188.667969 C 131.226562 178.746094 129.523438 168.8125 127.773438 158.882812 C 127.191406 155.574219 126.585938 152.269531 126.046875 148.953125 C 125.839844 147.691406 125.273438 147.023438 123.933594 146.804688 C 120.238281 146.203125 116.566406 145.46875 112.890625 144.792969 C 111.789062 144.589844 110.671875 144.445312 109.578125 144.203125 C 107.835938 143.816406 106.75 142.375 106.925781 140.769531 C 107.121094 139.09375 108.667969 137.839844 110.566406 138.070312 C 112.886719 138.359375 115.179688 138.824219 117.484375 139.242188 C 121.535156 139.972656 125.574219 140.75 129.632812 141.445312 C 130.613281 141.613281 131.085938 142 131.25 143.015625 C 131.703125 145.773438 132.273438 148.515625 132.773438 151.269531 C 134.261719 159.441406 135.769531 167.609375 137.210938 175.789062 C 139.011719 185.992188 140.738281 196.207031 142.527344 206.414062 C 143.398438 211.371094 144.339844 216.324219 145.261719 221.265625 C 145.503906 222.574219 145.472656 223.738281 144.660156 224.933594 C 143.570312 226.558594 142.84375 228.429688 141.761719 230.066406 C 140.472656 232.023438 141.636719 235.117188 144.625 234.851562 C 145.277344 234.792969 145.941406 234.851562 146.597656 234.851562 L 230.632812 234.851562 C 231.382812 234.851562 232.148438 234.789062 232.886719 234.898438 C 233.285156 234.953125 233.664062 235.082031 234.015625 235.285156 C 234.363281 235.484375 234.664062 235.746094 234.914062 236.066406 C 235.164062 236.386719 235.34375 236.738281 235.453125 237.128906 C 235.566406 237.515625 235.597656 237.914062 235.554688 238.316406 C 235.402344 240.007812 234.402344 240.949219 232.601562 241.050781 C 231.855469 241.09375 231.101562 241.066406 230.347656 241.066406 Z M 187.765625 241.0625 " fill-opacity="1" fill-rule="nonzero"/></g><g clip-path="url(#131b66645e)"><path fill="#000000" d="M 212.375 254.101562 C 211.988281 249.28125 216.628906 243.632812 222.609375 243.726562 C 228.304688 243.816406 233.027344 247.800781 233.109375 253.855469 C 233.1875 259.566406 229.242188 264.40625 222.730469 264.40625 C 215.964844 264.40625 212.144531 258.78125 212.375 254.101562 Z M 222.816406 249.363281 C 220.007812 249.363281 217.949219 251.378906 217.996094 254.101562 C 218.039062 256.710938 220.261719 258.839844 222.945312 258.84375 C 225.140625 258.84375 227.566406 256.285156 227.546875 253.980469 C 227.519531 251.519531 225.320312 249.371094 222.808594 249.363281 Z M 222.816406 249.363281 " fill-opacity="1" fill-rule="nonzero"/></g><g clip-path="url(#7977e1a48a)"><path fill="#000000" d="M 164.542969 254.132812 C 164.519531 259.785156 159.917969 264.523438 154.472656 264.496094 C 148.535156 264.464844 144.140625 259.886719 143.972656 253.945312 C 143.820312 248.429688 148.808594 243.636719 154.351562 243.679688 C 159.671875 243.726562 165.035156 248.597656 164.542969 254.132812 Z M 158.917969 254.390625 C 159.035156 251.691406 157.253906 249.53125 154.773438 249.375 C 151.9375 249.203125 149.816406 251.039062 149.644531 253.699219 C 149.464844 256.433594 151.296875 258.605469 154.089844 258.75 C 154.394531 258.769531 154.695312 258.761719 155 258.722656 C 155.300781 258.679688 155.59375 258.613281 155.878906 258.511719 C 156.167969 258.414062 156.441406 258.285156 156.703125 258.132812 C 156.964844 257.976562 157.207031 257.796875 157.433594 257.59375 C 157.660156 257.390625 157.863281 257.167969 158.042969 256.921875 C 158.222656 256.679688 158.375 256.417969 158.503906 256.144531 C 158.628906 255.867188 158.726562 255.582031 158.796875 255.289062 C 158.867188 254.992188 158.90625 254.695312 158.917969 254.390625 Z M 158.917969 254.390625 " fill-opacity="1" fill-rule="nonzero"/></g><g transform="matrix(1, 0, 0, 1, 102, 148)"><g clip-path="url(#211665296d)"><g clip-path="url(#de67cbe915)"><g clip-path="url(#c14d86718d)"><g clip-path="url(#26b7efad10)"><g transform="matrix(1, 0, 0, 1, 18, 66)"><g clip-path="url(#dae0e99f1e)"><g clip-path="url(#23b2d82330)"><g clip-path="url(#59efda0798)"><g clip-path="url(#6067aa2039)"><path fill="#0e4644" d="M 3.800781 0.5625 L 4.675781 5.292969 L 0.816406 6.007812 L -0.0585938 1.277344 Z M 3.800781 0.5625 " fill-opacity="1" fill-rule="nonzero"/></g></g></g></g></g></g></g></g><g fill="#0e4644" fill-opacity="1"><g transform="translate(6.825823, 3.092317)"><g><path d="M 14.625 -1.625 L 15.453125 2.859375 C 15.710938 4.210938 15.628906 5.34375 15.203125 6.25 C 14.773438 7.164062 13.910156 7.742188 12.609375 7.984375 C 11.171875 8.253906 10.03125 7.84375 9.1875 6.75 C 9.195312 8.882812 8.171875 10.140625 6.109375 10.515625 C 4.898438 10.742188 3.847656 10.503906 2.953125 9.796875 C 2.066406 9.097656 1.484375 8.007812 1.203125 6.53125 L 0.1875 1.046875 Z M 9.578125 2.71875 L 9.640625 2.984375 C 9.773438 3.722656 10.003906 4.25 10.328125 4.5625 C 10.648438 4.875 11.101562 4.972656 11.6875 4.859375 C 12.664062 4.679688 13.023438 3.863281 12.765625 2.40625 L 12.703125 2.140625 Z M 3.328125 3.875 L 3.53125 4.90625 C 3.820312 6.519531 4.503906 7.226562 5.578125 7.03125 C 6.222656 6.90625 6.648438 6.613281 6.859375 6.15625 C 7.078125 5.707031 7.113281 5.078125 6.96875 4.265625 L 6.765625 3.234375 Z M 3.328125 3.875 "/></g></g></g><g fill="#0e4644" fill-opacity="1"><g transform="translate(8.834241, 13.948128)"><g><path d="M 7.3125 -0.9375 C 9.40625 -1.320312 11.304688 -0.9375 13.015625 0.21875 C 14.722656 1.375 15.765625 2.957031 16.140625 4.96875 C 16.515625 6.988281 16.109375 8.835938 14.921875 10.515625 C 13.742188 12.203125 12.101562 13.238281 10 13.625 C 7.882812 14.019531 5.976562 13.648438 4.28125 12.515625 C 2.582031 11.390625 1.539062 9.796875 1.15625 7.734375 C 0.757812 5.617188 1.148438 3.742188 2.328125 2.109375 C 3.515625 0.472656 5.175781 -0.539062 7.3125 -0.9375 Z M 7.96875 2.625 C 7.207031 2.769531 6.535156 3.015625 5.953125 3.359375 C 5.367188 3.703125 4.914062 4.203125 4.59375 4.859375 C 4.269531 5.523438 4.1875 6.285156 4.34375 7.140625 C 4.570312 8.367188 5.164062 9.21875 6.125 9.6875 C 7.082031 10.15625 8.15625 10.28125 9.34375 10.0625 C 10.519531 9.84375 11.46875 9.335938 12.1875 8.546875 C 12.914062 7.753906 13.171875 6.753906 12.953125 5.546875 C 12.734375 4.359375 12.140625 3.519531 11.171875 3.03125 C 10.210938 2.539062 9.144531 2.40625 7.96875 2.625 Z M 7.96875 2.625 "/></g></g></g><g fill="#0e4644" fill-opacity="1"><g transform="translate(11.526179, 28.498476)"><g><path d="M 4.609375 8.203125 C 4.691406 8.703125 4.847656 9.171875 5.078125 9.609375 C 5.316406 10.046875 5.53125 10.367188 5.71875 10.578125 L 6.015625 10.859375 L 3.484375 12.78125 C 3.429688 12.738281 3.367188 12.679688 3.296875 12.609375 C 3.222656 12.535156 3.078125 12.363281 2.859375 12.09375 C 2.648438 11.832031 2.453125 11.539062 2.265625 11.21875 C 2.085938 10.90625 1.898438 10.484375 1.703125 9.953125 C 1.515625 9.421875 1.367188 8.863281 1.265625 8.28125 C 1.015625 6.9375 1.109375 5.601562 1.546875 4.28125 C 1.984375 2.957031 2.707031 1.820312 3.71875 0.875 C 4.738281 -0.0703125 5.925781 -0.671875 7.28125 -0.921875 C 8.300781 -1.109375 9.3125 -1.070312 10.3125 -0.8125 C 11.320312 -0.550781 12.226562 -0.125 13.03125 0.46875 C 13.832031 1.0625 14.519531 1.800781 15.09375 2.6875 C 15.675781 3.570312 16.0625 4.515625 16.25 5.515625 C 16.414062 6.453125 16.457031 7.332031 16.375 8.15625 C 16.300781 8.988281 16.1875 9.585938 16.03125 9.953125 L 15.78125 10.515625 L 12.71875 9.625 C 12.769531 9.539062 12.832031 9.40625 12.90625 9.21875 C 12.976562 9.03125 13.050781 8.675781 13.125 8.15625 C 13.195312 7.632812 13.191406 7.125 13.109375 6.625 C 12.953125 5.820312 12.6875 5.128906 12.3125 4.546875 C 11.9375 3.960938 11.503906 3.523438 11.015625 3.234375 C 10.523438 2.941406 10.019531 2.742188 9.5 2.640625 C 8.976562 2.546875 8.46875 2.546875 7.96875 2.640625 C 6.875 2.847656 5.96875 3.441406 5.25 4.421875 C 4.53125 5.410156 4.316406 6.671875 4.609375 8.203125 Z M 4.609375 8.203125 "/></g></g></g><g fill="#0e4644" fill-opacity="1"><g transform="translate(13.816428, 40.877625)"><g><path d="M 6.59375 3.265625 L 0.796875 4.34375 L 0.1875 1.046875 L 14.625 -1.625 L 15.234375 1.671875 L 9.484375 2.734375 L 10.359375 7.390625 L 16.109375 6.328125 L 16.71875 9.625 L 2.28125 12.296875 L 1.671875 9 L 7.46875 7.921875 Z M 6.59375 3.265625 "/></g></g></g><g fill="#0e4644" fill-opacity="1"><g transform="translate(16.135831, 53.414364)"><g><path d="M 14.625 -1.625 L 15.609375 3.65625 C 15.878906 5.125 15.71875 6.382812 15.125 7.4375 C 14.539062 8.488281 13.523438 9.144531 12.078125 9.40625 C 10.628906 9.675781 9.410156 9.425781 8.421875 8.65625 C 7.429688 7.894531 6.800781 6.789062 6.53125 5.34375 L 6.15625 3.359375 L 0.796875 4.34375 L 0.1875 1.046875 Z M 8.78125 2.859375 L 8.953125 3.78125 C 9.085938 4.519531 9.347656 5.097656 9.734375 5.515625 C 10.117188 5.941406 10.648438 6.09375 11.328125 5.96875 C 12.015625 5.84375 12.460938 5.515625 12.671875 4.984375 C 12.878906 4.453125 12.914062 3.816406 12.78125 3.078125 L 12.609375 2.15625 Z M 8.78125 2.859375 "/></g></g></g></g></g></svg>