<svg xmlns="http://www.w3.org/2000/svg" xmlns:xlink="http://www.w3.org/1999/xlink" width="500" zoomAndPan="magnify" viewBox="0 0 375 374.999991" height="500" preserveAspectRatio="xMidYMid meet" version="1.0"><defs><g/><clipPath id="c70f28584c"><path d="M 251.90625 245.324219 L 262.574219 245.324219 L 262.574219 254.484375 L 251.90625 254.484375 Z M 251.90625 245.324219 " clip-rule="nonzero"/></clipPath><clipPath id="148b817f7c"><path d="M 262.570312 249.902344 L 259.902344 254.484375 L 254.574219 254.484375 L 251.90625 249.902344 L 254.574219 245.324219 L 259.902344 245.324219 Z M 262.570312 249.902344 " clip-rule="nonzero"/></clipPath><clipPath id="8bcb0453d7"><path d="M 0.90625 0.324219 L 11.574219 0.324219 L 11.574219 9.484375 L 0.90625 9.484375 Z M 0.90625 0.324219 " clip-rule="nonzero"/></clipPath><clipPath id="e3a7672a2f"><path d="M 11.570312 4.902344 L 8.902344 9.484375 L 3.574219 9.484375 L 0.90625 4.902344 L 3.574219 0.324219 L 8.902344 0.324219 Z M 11.570312 4.902344 " clip-rule="nonzero"/></clipPath><clipPath id="cff80b3e29"><rect x="0" width="12" y="0" height="10"/></clipPath><clipPath id="20bc110393"><path d="M 123.3125 108.417969 L 225 108.417969 L 225 190 L 123.3125 190 Z M 123.3125 108.417969 " clip-rule="nonzero"/></clipPath><clipPath id="3dd21af89d"><path d="M 206 191 L 223 191 L 223 208.167969 L 206 208.167969 Z M 206 191 " clip-rule="nonzero"/></clipPath><clipPath id="abd79487f1"><path d="M 152 191 L 169 191 L 169 208.167969 L 152 208.167969 Z M 152 191 " clip-rule="nonzero"/></clipPath></defs><g clip-path="url(#c70f28584c)"><g clip-path="url(#148b817f7c)"><g transform="matrix(1, 0, 0, 1, 251, 245)"><g clip-path="url(#cff80b3e29)"><g clip-path="url(#8bcb0453d7)"><g clip-path="url(#e3a7672a2f)"><path fill="#0e4644" d="M 0.90625 0.324219 L 11.574219 0.324219 L 11.574219 9.484375 L 0.90625 9.484375 Z M 0.90625 0.324219 " fill-opacity="1" fill-rule="nonzero"/></g></g></g></g></g></g><g fill="#0e4644" fill-opacity="1"><g transform="translate(107.565789, 252.742983)"><g><path d="M 2.5 -34.3125 L 13.140625 -34.3125 C 16.359375 -34.3125 18.921875 -33.625 20.828125 -32.25 C 22.742188 -30.882812 23.703125 -28.660156 23.703125 -25.578125 C 23.703125 -22.140625 22.273438 -19.6875 19.421875 -18.21875 C 24.304688 -17.351562 26.75 -14.46875 26.75 -9.5625 C 26.75 -6.675781 25.75 -4.359375 23.75 -2.609375 C 21.75 -0.867188 19.003906 0 15.515625 0 L 2.5 0 Z M 10.3125 -20.875 L 10.9375 -20.875 C 12.6875 -20.875 13.988281 -21.175781 14.84375 -21.78125 C 15.707031 -22.394531 16.140625 -23.398438 16.140625 -24.796875 C 16.140625 -27.117188 14.40625 -28.28125 10.9375 -28.28125 L 10.3125 -28.28125 Z M 10.3125 -6.03125 L 12.765625 -6.03125 C 16.597656 -6.03125 18.515625 -7.304688 18.515625 -9.859375 C 18.515625 -11.378906 18.035156 -12.472656 17.078125 -13.140625 C 16.117188 -13.804688 14.679688 -14.140625 12.765625 -14.140625 L 10.3125 -14.140625 Z M 10.3125 -6.03125 "/></g></g></g><g fill="#0e4644" fill-opacity="1"><g transform="translate(133.351066, 252.742983)"><g><path d="M 0.953125 -17.171875 C 0.953125 -22.140625 2.644531 -26.34375 6.03125 -29.78125 C 9.414062 -33.21875 13.492188 -34.9375 18.265625 -34.9375 C 23.054688 -34.9375 27.128906 -33.222656 30.484375 -29.796875 C 33.835938 -26.378906 35.515625 -22.171875 35.515625 -17.171875 C 35.515625 -12.160156 33.863281 -7.941406 30.5625 -4.515625 C 27.269531 -1.085938 23.171875 0.625 18.265625 0.625 C 13.242188 0.625 9.101562 -1.070312 5.84375 -4.46875 C 2.582031 -7.863281 0.953125 -12.097656 0.953125 -17.171875 Z M 9.40625 -17.171875 C 9.40625 -15.367188 9.679688 -13.726562 10.234375 -12.25 C 10.785156 -10.769531 11.753906 -9.515625 13.140625 -8.484375 C 14.523438 -7.460938 16.234375 -6.953125 18.265625 -6.953125 C 21.171875 -6.953125 23.363281 -7.945312 24.84375 -9.9375 C 26.332031 -11.9375 27.078125 -14.347656 27.078125 -17.171875 C 27.078125 -19.972656 26.320312 -22.378906 24.8125 -24.390625 C 23.300781 -26.398438 21.117188 -27.40625 18.265625 -27.40625 C 15.429688 -27.40625 13.242188 -26.398438 11.703125 -24.390625 C 10.171875 -22.378906 9.40625 -19.972656 9.40625 -17.171875 Z M 9.40625 -17.171875 "/></g></g></g><g fill="#0e4644" fill-opacity="1"><g transform="translate(167.911797, 252.742983)"><g><path d="M 20.75 -7.078125 C 21.945312 -7.078125 23.101562 -7.253906 24.21875 -7.609375 C 25.34375 -7.972656 26.171875 -8.320312 26.703125 -8.65625 L 27.5 -9.1875 L 30.828125 -2.53125 C 30.710938 -2.445312 30.554688 -2.335938 30.359375 -2.203125 C 30.171875 -2.066406 29.722656 -1.8125 29.015625 -1.4375 C 28.304688 -1.0625 27.546875 -0.734375 26.734375 -0.453125 C 25.929688 -0.179688 24.878906 0.0625 23.578125 0.28125 C 22.273438 0.507812 20.929688 0.625 19.546875 0.625 C 16.359375 0.625 13.335938 -0.15625 10.484375 -1.71875 C 7.628906 -3.289062 5.328125 -5.445312 3.578125 -8.1875 C 1.828125 -10.9375 0.953125 -13.90625 0.953125 -17.09375 C 0.953125 -19.507812 1.460938 -21.828125 2.484375 -24.046875 C 3.515625 -26.265625 4.882812 -28.160156 6.59375 -29.734375 C 8.300781 -31.316406 10.289062 -32.578125 12.5625 -33.515625 C 14.832031 -34.460938 17.160156 -34.9375 19.546875 -34.9375 C 21.765625 -34.9375 23.804688 -34.671875 25.671875 -34.140625 C 27.546875 -33.617188 28.875 -33.09375 29.65625 -32.5625 L 30.828125 -31.78125 L 27.5 -25.125 C 27.300781 -25.289062 27.003906 -25.488281 26.609375 -25.71875 C 26.222656 -25.957031 25.445312 -26.269531 24.28125 -26.65625 C 23.125 -27.050781 21.945312 -27.25 20.75 -27.25 C 18.863281 -27.25 17.171875 -26.941406 15.671875 -26.328125 C 14.179688 -25.710938 13 -24.90625 12.125 -23.90625 C 11.25 -22.914062 10.582031 -21.84375 10.125 -20.6875 C 9.664062 -19.539062 9.4375 -18.367188 9.4375 -17.171875 C 9.4375 -14.566406 10.414062 -12.234375 12.375 -10.171875 C 14.332031 -8.109375 17.125 -7.078125 20.75 -7.078125 Z M 20.75 -7.078125 "/></g></g></g><g fill="#0e4644" fill-opacity="1"><g transform="translate(197.315386, 252.742983)"><g><path d="M 10.3125 -13.765625 L 10.3125 0 L 2.5 0 L 2.5 -34.3125 L 10.3125 -34.3125 L 10.3125 -20.625 L 21.375 -20.625 L 21.375 -34.3125 L 29.203125 -34.3125 L 29.203125 0 L 21.375 0 L 21.375 -13.765625 Z M 10.3125 -13.765625 "/></g></g></g><g fill="#0e4644" fill-opacity="1"><g transform="translate(227.093289, 252.742983)"><g><path d="M 2.5 -34.3125 L 15.015625 -34.3125 C 18.503906 -34.3125 21.332031 -33.410156 23.5 -31.609375 C 25.664062 -29.804688 26.75 -27.1875 26.75 -23.75 C 26.75 -20.3125 25.648438 -17.613281 23.453125 -15.65625 C 21.265625 -13.707031 18.453125 -12.734375 15.015625 -12.734375 L 10.3125 -12.734375 L 10.3125 0 L 2.5 0 Z M 10.3125 -18.96875 L 12.515625 -18.96875 C 14.265625 -18.96875 15.703125 -19.320312 16.828125 -20.03125 C 17.953125 -20.738281 18.515625 -21.894531 18.515625 -23.5 C 18.515625 -25.132812 17.953125 -26.304688 16.828125 -27.015625 C 15.703125 -27.722656 14.265625 -28.078125 12.515625 -28.078125 L 10.3125 -28.078125 Z M 10.3125 -18.96875 "/></g></g></g><path fill="#000000" d="M 185.011719 126.820312 C 197.964844 126.820312 210.917969 126.816406 223.871094 126.808594 C 224.992188 126.808594 226.0625 126.863281 227.054688 127.476562 C 228.285156 128.246094 229.066406 129.800781 228.820312 131.214844 C 227.925781 136.277344 227.003906 141.332031 226.113281 146.398438 C 225.003906 152.683594 223.898438 158.976562 222.800781 165.265625 C 222.710938 165.773438 222.582031 166.269531 222.457031 166.769531 C 221.9375 168.882812 220.792969 169.929688 218.652344 170.109375 C 214.480469 170.449219 210.308594 170.726562 206.136719 171.074219 C 201.683594 171.445312 197.230469 171.871094 192.773438 172.265625 C 190.875 172.433594 188.972656 172.589844 187.070312 172.730469 C 182.527344 173.070312 177.992188 173.382812 173.457031 173.734375 C 167.824219 174.167969 162.191406 174.617188 156.5625 175.082031 C 155.175781 175.195312 153.789062 175.421875 152.402344 175.441406 C 150.425781 175.46875 149.035156 174.378906 148.632812 172.414062 C 147.984375 169.253906 147.453125 166.066406 146.875 162.890625 C 145.578125 155.742188 144.28125 148.59375 142.988281 141.441406 C 142.402344 138.195312 141.808594 134.945312 141.234375 131.695312 C 140.761719 129.019531 142.507812 126.917969 145.273438 126.835938 C 146.449219 126.804688 147.628906 126.832031 148.804688 126.832031 Z M 169.003906 145.351562 L 165.257812 145.351562 C 165.183594 145.351562 165.109375 145.351562 165.039062 145.351562 C 163.179688 145.34375 162.992188 145.117188 163.148438 147.226562 C 163.332031 149.714844 163.503906 152.203125 163.707031 154.6875 C 163.800781 155.769531 164.042969 155.957031 165.09375 155.886719 C 166.847656 155.773438 168.597656 155.65625 170.347656 155.527344 C 171.515625 155.4375 172.675781 155.300781 173.84375 155.230469 C 174.601562 155.1875 175.136719 155.070312 174.824219 154.082031 C 174.699219 153.679688 174.78125 153.207031 174.773438 152.765625 C 174.738281 150.640625 174.6875 148.5 174.683594 146.367188 C 174.683594 145.601562 174.359375 145.332031 173.625 145.347656 C 172.085938 145.371094 170.546875 145.351562 169.003906 145.351562 Z M 185.421875 131.664062 C 183.664062 131.664062 181.902344 131.683594 180.144531 131.652344 C 179.40625 131.644531 179.066406 131.894531 179.109375 132.671875 C 179.238281 135.160156 179.34375 137.648438 179.460938 140.140625 C 179.484375 140.679688 179.789062 140.898438 180.3125 140.898438 C 181.191406 140.890625 182.074219 140.898438 182.949219 140.898438 C 185.375 140.898438 187.796875 140.890625 190.210938 140.898438 C 190.894531 140.898438 191.378906 140.675781 191.394531 139.929688 C 191.449219 137.429688 191.488281 134.933594 191.519531 132.4375 C 191.519531 131.90625 191.25 131.648438 190.699219 131.652344 C 188.941406 131.667969 187.183594 131.664062 185.421875 131.664062 Z M 202.984375 131.664062 C 201.222656 131.664062 199.464844 131.675781 197.707031 131.664062 C 196.925781 131.652344 196.417969 131.902344 196.402344 132.761719 C 196.367188 135.191406 196.335938 137.613281 196.292969 140.035156 C 196.28125 140.710938 196.628906 140.910156 197.246094 140.910156 C 200.617188 140.898438 203.992188 140.910156 207.363281 140.910156 C 207.859375 140.910156 208.21875 140.726562 208.261719 140.175781 C 208.445312 137.691406 208.613281 135.207031 208.808594 132.722656 C 208.867188 131.984375 208.59375 131.648438 207.824219 131.660156 C 206.210938 131.683594 204.597656 131.664062 202.984375 131.664062 Z M 168.195312 131.664062 C 166.433594 131.664062 164.675781 131.640625 162.914062 131.667969 C 161.855469 131.6875 161.789062 131.726562 161.855469 132.828125 C 161.992188 135.171875 162.210938 137.507812 162.382812 139.847656 C 162.445312 140.710938 162.957031 140.910156 163.726562 140.910156 C 166.882812 140.890625 170.035156 140.882812 173.191406 140.917969 C 174.035156 140.929688 174.386719 140.648438 174.367188 139.789062 C 174.304688 137.4375 174.253906 135.082031 174.269531 132.734375 C 174.269531 131.796875 173.804688 131.644531 173.039062 131.65625 C 171.421875 131.675781 169.808594 131.660156 168.195312 131.664062 Z M 185.492188 145.355469 C 183.875 145.355469 182.257812 145.371094 180.644531 145.347656 C 179.960938 145.335938 179.515625 145.472656 179.554688 146.304688 C 179.691406 148.945312 179.792969 151.589844 179.910156 154.230469 C 179.933594 154.753906 180.179688 155.035156 180.742188 155.003906 C 183.378906 154.851562 186.015625 154.71875 188.652344 154.558594 C 189.160156 154.527344 189.660156 154.371094 190.167969 154.324219 C 190.835938 154.265625 190.996094 153.871094 191 153.273438 C 191.023438 150.996094 191.027344 148.707031 191.109375 146.425781 C 191.144531 145.480469 190.683594 145.328125 189.90625 145.34375 C 188.433594 145.371094 186.964844 145.351562 185.492188 145.355469 Z M 202.019531 145.355469 C 200.332031 145.355469 198.640625 145.363281 196.949219 145.355469 C 196.355469 145.355469 195.972656 145.507812 195.964844 146.210938 C 195.945312 148.566406 195.898438 150.914062 195.859375 153.277344 C 195.851562 153.945312 196.164062 154.15625 196.824219 154.109375 C 199.097656 153.960938 201.359375 153.863281 203.628906 153.714844 C 204.503906 153.660156 205.371094 153.496094 206.246094 153.433594 C 206.792969 153.394531 207.015625 153.085938 207.089844 152.605469 C 207.175781 152.027344 207.28125 151.449219 207.335938 150.871094 C 207.472656 149.40625 207.566406 147.941406 207.710938 146.484375 C 207.804688 145.523438 207.722656 145.378906 206.652344 145.359375 C 205.109375 145.328125 203.570312 145.351562 202.019531 145.351562 Z M 153.503906 145.355469 C 152.472656 145.355469 151.445312 145.339844 150.414062 145.355469 C 148.914062 145.382812 148.832031 145.40625 149.039062 146.828125 C 149.46875 149.734375 149.984375 152.625 150.488281 155.519531 C 150.582031 156.042969 150.835938 156.507812 151.496094 156.484375 C 153.554688 156.414062 155.613281 156.394531 157.664062 156.234375 C 158.75 156.152344 158.878906 155.933594 158.8125 154.800781 C 158.652344 152.230469 158.4375 149.664062 158.230469 147.09375 C 158.214844 146.878906 158.082031 146.671875 158.066406 146.457031 C 158.011719 145.664062 157.683594 145.28125 156.816406 145.335938 C 155.714844 145.402344 154.609375 145.351562 153.503906 145.351562 Z M 175.226562 164.359375 L 175.109375 164.359375 C 175.109375 163.105469 175.121094 161.851562 175.109375 160.601562 C 175.097656 159.855469 174.710938 159.578125 173.957031 159.691406 C 173.089844 159.8125 172.207031 159.855469 171.332031 159.917969 C 169.363281 160.054688 167.378906 160.203125 165.402344 160.296875 C 164.617188 160.332031 164.390625 160.695312 164.449219 161.410156 C 164.644531 163.828125 164.820312 166.25 165.003906 168.667969 C 165.0625 169.429688 165.621094 169.386719 166.140625 169.355469 C 168.847656 169.179688 171.554688 168.96875 174.265625 168.816406 C 175.054688 168.773438 175.253906 168.375 175.238281 167.683594 C 175.210938 166.570312 175.226562 165.464844 175.226562 164.359375 Z M 151.539062 131.664062 C 150.144531 131.664062 148.753906 131.6875 147.363281 131.65625 C 146.578125 131.636719 146.304688 131.957031 146.441406 132.71875 C 146.878906 135.085938 147.335938 137.453125 147.730469 139.828125 C 147.867188 140.660156 148.304688 140.914062 149.078125 140.910156 C 151.566406 140.890625 154.058594 140.886719 156.546875 140.910156 C 157.347656 140.917969 157.554688 140.527344 157.496094 139.824219 C 157.308594 137.488281 157.117188 135.152344 156.957031 132.816406 C 156.902344 132.003906 156.539062 131.636719 155.710938 131.65625 C 154.320312 131.683594 152.929688 131.664062 151.539062 131.664062 Z M 190.664062 163.371094 C 190.664062 161.996094 190.675781 160.742188 190.664062 159.488281 C 190.664062 158.96875 190.425781 158.757812 189.828125 158.800781 C 187.777344 158.953125 185.71875 159.011719 183.667969 159.140625 C 182.71875 159.203125 181.777344 159.378906 180.832031 159.433594 C 180.144531 159.476562 179.980469 159.824219 179.992188 160.433594 C 180.039062 162.5 180.046875 164.566406 180.09375 166.628906 C 180.105469 166.992188 180.144531 167.398438 180.320312 167.691406 C 180.472656 167.941406 180.84375 168.222656 181.105469 168.210938 C 182.9375 168.128906 184.769531 168.015625 186.59375 167.824219 C 187.882812 167.6875 189.160156 167.414062 190.441406 167.203125 C 190.511719 165.882812 190.589844 164.566406 190.664062 163.371094 Z M 195.511719 162.878906 L 195.453125 162.878906 C 195.453125 163.835938 195.441406 164.792969 195.453125 165.75 C 195.46875 167.027344 195.480469 167.082031 196.636719 166.992188 C 199.484375 166.761719 202.324219 166.46875 205.167969 166.203125 C 205.65625 166.160156 205.984375 166 206.027344 165.429688 C 206.179688 163.382812 206.386719 161.332031 206.503906 159.285156 C 206.578125 157.976562 206.398438 157.867188 205.171875 157.984375 C 204.441406 158.050781 203.714844 158.109375 202.980469 158.136719 C 201.4375 158.195312 199.890625 158.160156 198.355469 158.296875 C 195.550781 158.546875 195.554688 158.585938 195.511719 161.332031 C 195.503906 161.84375 195.511719 162.355469 195.511719 162.875 Z M 218.914062 131.664062 C 217.738281 131.664062 216.5625 131.648438 215.386719 131.664062 C 214.085938 131.683594 213.988281 131.683594 213.832031 132.925781 C 213.539062 135.253906 213.378906 137.597656 213.148438 139.9375 C 213.085938 140.570312 213.324219 140.898438 214 140.898438 C 216.351562 140.886719 218.707031 140.878906 221.058594 140.90625 C 221.867188 140.914062 222.246094 140.585938 222.378906 139.78125 C 222.769531 137.394531 223.210938 135.015625 223.648438 132.636719 C 223.765625 131.996094 223.585938 131.652344 222.890625 131.65625 C 221.5625 131.671875 220.230469 131.664062 218.914062 131.664062 Z M 160.0625 168.554688 C 159.902344 166.429688 159.746094 164.304688 159.574219 162.179688 C 159.546875 161.890625 159.390625 161.613281 159.359375 161.324219 C 159.289062 160.671875 158.957031 160.460938 158.320312 160.511719 C 156.492188 160.65625 154.660156 160.753906 152.828125 160.878906 C 151.6875 160.953125 151.542969 161.089844 151.730469 162.210938 C 152.144531 164.671875 152.613281 167.125 153.046875 169.582031 C 153.152344 170.191406 153.457031 170.511719 154.085938 170.460938 C 155.625 170.34375 157.160156 170.214844 158.695312 170.101562 C 160.132812 169.988281 160.132812 169.992188 160.0625 168.558594 Z M 217.113281 145.351562 C 215.933594 145.351562 214.757812 145.363281 213.582031 145.351562 C 212.933594 145.339844 212.6875 145.640625 212.636719 146.269531 C 212.488281 148.246094 212.289062 150.21875 212.117188 152.199219 C 212.042969 153.058594 212.226562 153.265625 213.027344 153.203125 C 214.199219 153.113281 215.363281 152.988281 216.53125 152.910156 C 217.410156 152.855469 218.304688 152.910156 219.171875 152.789062 C 219.523438 152.738281 220.042969 152.371094 220.109375 152.066406 C 220.503906 150.199219 220.789062 148.3125 221.113281 146.429688 C 221.238281 145.703125 220.996094 145.320312 220.203125 145.34375 C 219.171875 145.375 218.140625 145.351562 217.113281 145.351562 Z M 212.386719 165.710938 C 213.972656 165.558594 215.429688 165.40625 216.890625 165.289062 C 217.480469 165.238281 217.851562 164.984375 217.949219 164.375 C 218.316406 162.207031 218.695312 160.039062 219.027344 157.867188 C 219.054688 157.695312 218.773438 157.304688 218.652344 157.308594 C 216.453125 157.410156 214.261719 157.539062 212.066406 157.695312 C 211.511719 157.738281 211.449219 158.214844 211.414062 158.683594 C 211.273438 160.4375 211.109375 162.195312 210.96875 163.953125 C 210.9375 164.316406 210.855469 164.710938 210.96875 165.042969 C 211.058594 165.308594 211.367188 165.566406 211.640625 165.683594 C 211.890625 165.800781 212.21875 165.710938 212.386719 165.710938 Z M 212.386719 165.710938 " fill-opacity="1" fill-rule="nonzero"/><g clip-path="url(#20bc110393)"><path fill="#000000" d="M 186.785156 189.671875 C 175.519531 189.671875 164.25 189.648438 152.984375 189.691406 C 150.714844 189.703125 148.839844 189.039062 147.269531 187.386719 C 145.066406 185.0625 144.898438 181.382812 146.46875 178.542969 C 147.039062 177.511719 147.679688 176.515625 148.183594 175.457031 C 148.429688 174.929688 148.515625 174.378906 148.441406 173.800781 C 146.941406 165.34375 145.382812 156.894531 143.886719 148.4375 C 142.496094 140.628906 141.160156 132.8125 139.789062 125 C 139.332031 122.394531 138.859375 119.792969 138.433594 117.183594 C 138.273438 116.191406 137.828125 115.664062 136.78125 115.496094 C 133.886719 115.019531 131.007812 114.445312 128.132812 113.910156 C 127.265625 113.75 126.390625 113.636719 125.535156 113.445312 C 124.171875 113.144531 123.320312 112.007812 123.460938 110.746094 C 123.609375 109.425781 124.824219 108.441406 126.308594 108.621094 C 128.125 108.847656 129.925781 109.214844 131.730469 109.542969 C 134.902344 110.117188 138.066406 110.730469 141.246094 111.277344 C 142.011719 111.410156 142.382812 111.714844 142.511719 112.511719 C 142.867188 114.683594 143.3125 116.839844 143.707031 119.007812 C 144.871094 125.4375 146.050781 131.867188 147.179688 138.300781 C 148.589844 146.332031 149.945312 154.371094 151.347656 162.402344 C 152.027344 166.304688 152.765625 170.203125 153.488281 174.09375 C 153.679688 175.121094 153.652344 176.035156 153.019531 176.976562 C 152.164062 178.257812 151.59375 179.726562 150.746094 181.015625 C 149.738281 182.554688 150.648438 184.992188 152.988281 184.78125 C 153.5 184.734375 154.019531 184.78125 154.535156 184.78125 L 220.363281 184.78125 C 220.949219 184.78125 221.546875 184.734375 222.125 184.816406 C 222.441406 184.863281 222.734375 184.964844 223.011719 185.121094 C 223.285156 185.28125 223.519531 185.488281 223.714844 185.738281 C 223.910156 185.988281 224.050781 186.269531 224.136719 186.574219 C 224.226562 186.878906 224.25 187.191406 224.214844 187.507812 C 224.097656 188.839844 223.316406 189.582031 221.90625 189.660156 C 221.320312 189.695312 220.726562 189.671875 220.136719 189.671875 Z M 186.785156 189.671875 " fill-opacity="1" fill-rule="nonzero"/></g><g clip-path="url(#3dd21af89d)"><path fill="#000000" d="M 206.058594 199.933594 C 205.757812 196.136719 209.390625 191.695312 214.078125 191.769531 C 218.539062 191.839844 222.238281 194.972656 222.300781 199.738281 C 222.363281 204.234375 219.273438 208.039062 214.171875 208.039062 C 208.871094 208.039062 205.878906 203.617188 206.058594 199.933594 Z M 214.238281 196.203125 C 212.039062 196.203125 210.425781 197.789062 210.464844 199.929688 C 210.5 201.984375 212.238281 203.660156 214.339844 203.664062 C 216.058594 203.664062 217.960938 201.648438 217.945312 199.835938 C 217.921875 197.898438 216.199219 196.210938 214.234375 196.203125 Z M 214.238281 196.203125 " fill-opacity="1" fill-rule="nonzero"/></g><g clip-path="url(#abd79487f1)"><path fill="#000000" d="M 168.589844 199.957031 C 168.570312 204.40625 164.96875 208.132812 160.703125 208.109375 C 156.050781 208.089844 152.609375 204.484375 152.480469 199.808594 C 152.359375 195.46875 156.265625 191.695312 160.609375 191.730469 C 164.777344 191.765625 168.976562 195.601562 168.589844 199.957031 Z M 164.183594 200.160156 C 164.277344 198.035156 162.882812 196.335938 160.9375 196.210938 C 158.71875 196.078125 157.054688 197.519531 156.921875 199.613281 C 156.78125 201.765625 158.214844 203.472656 160.40625 203.589844 C 160.640625 203.605469 160.878906 203.597656 161.113281 203.566406 C 161.351562 203.535156 161.582031 203.480469 161.804688 203.402344 C 162.03125 203.324219 162.246094 203.222656 162.449219 203.101562 C 162.65625 202.980469 162.847656 202.839844 163.023438 202.679688 C 163.199219 202.519531 163.359375 202.34375 163.5 202.152344 C 163.640625 201.960938 163.761719 201.753906 163.859375 201.539062 C 163.960938 201.320312 164.035156 201.097656 164.089844 200.863281 C 164.144531 200.632812 164.175781 200.398438 164.183594 200.160156 Z M 164.183594 200.160156 " fill-opacity="1" fill-rule="nonzero"/></g></svg>