<svg xmlns="http://www.w3.org/2000/svg" xmlns:xlink="http://www.w3.org/1999/xlink" width="500" zoomAndPan="magnify" viewBox="0 0 375 374.999991" height="500" preserveAspectRatio="xMidYMid meet" version="1.0"><defs><g/><clipPath id="886fadfb59"><path d="M 129 161 L 241.742188 161 L 241.742188 223 L 129 223 Z M 129 161 " clip-rule="nonzero"/></clipPath><clipPath id="bfeba4ccfc"><path d="M 106.742188 138 L 236 138 L 236 242 L 106.742188 242 Z M 106.742188 138 " clip-rule="nonzero"/></clipPath><clipPath id="dbf328eb5c"><path d="M 212 243 L 233 243 L 233 264.5625 L 212 264.5625 Z M 212 243 " clip-rule="nonzero"/></clipPath><clipPath id="f813dace90"><path d="M 143 243 L 165 243 L 165 264.5625 L 143 264.5625 Z M 143 243 " clip-rule="nonzero"/></clipPath><clipPath id="11c7b3be21"><path d="M 120 214 L 125 214 L 125 220 L 120 220 Z M 120 214 " clip-rule="nonzero"/></clipPath><clipPath id="b5ad033085"><path d="M 123.800781 214.5625 L 124.675781 219.292969 L 120.820312 220.007812 L 119.945312 215.277344 Z M 123.800781 214.5625 " clip-rule="nonzero"/></clipPath><clipPath id="311987008b"><path d="M 122.746094 219.652344 L 120.609375 218.886719 L 120.152344 216.398438 L 121.871094 214.921875 L 124.007812 215.683594 L 124.46875 218.171875 Z M 122.746094 219.652344 " clip-rule="nonzero"/></clipPath><clipPath id="b84753ba88"><path d="M 0 0.800781 L 4.558594 0.800781 L 4.558594 5.839844 L 0 5.839844 Z M 0 0.800781 " clip-rule="nonzero"/></clipPath><clipPath id="dafd61aca2"><path d="M 3.800781 0.5625 L 4.675781 5.292969 L 0.820312 6.007812 L -0.0546875 1.277344 Z M 3.800781 0.5625 " clip-rule="nonzero"/></clipPath><clipPath id="38c1fb1f29"><path d="M 2.746094 5.652344 L 0.609375 4.886719 L 0.152344 2.398438 L 1.871094 0.921875 L 4.007812 1.683594 L 4.46875 4.171875 Z M 2.746094 5.652344 " clip-rule="nonzero"/></clipPath><clipPath id="32651b90e6"><rect x="0" width="5" y="0" height="6"/></clipPath><clipPath id="a59fe6689f"><rect x="0" width="34" y="0" height="67"/></clipPath></defs><g clip-path="url(#886fadfb59)"><path fill="#ffffff" d="M 185.308594 161.195312 C 201.800781 161.195312 218.296875 161.191406 234.792969 161.183594 C 236.21875 161.183594 237.582031 161.25 238.84375 162.03125 C 240.414062 163.003906 241.40625 164.984375 241.089844 166.78125 C 239.957031 173.210938 238.777344 179.636719 237.644531 186.070312 C 236.230469 194.058594 234.824219 202.050781 233.425781 210.042969 C 233.3125 210.6875 233.144531 211.320312 232.988281 211.953125 C 232.328125 214.640625 230.867188 215.96875 228.144531 216.199219 C 222.832031 216.632812 217.519531 216.980469 212.210938 217.421875 C 206.535156 217.894531 200.863281 218.4375 195.191406 218.9375 C 192.769531 219.152344 190.351562 219.351562 187.929688 219.53125 C 182.144531 219.960938 176.371094 220.355469 170.59375 220.800781 C 163.421875 221.355469 156.25 221.925781 149.082031 222.519531 C 147.3125 222.660156 145.550781 222.949219 143.785156 222.972656 C 141.265625 223.007812 139.492188 221.621094 138.980469 219.125 C 138.15625 215.109375 137.480469 211.0625 136.746094 207.027344 C 135.09375 197.941406 133.441406 188.859375 131.796875 179.773438 C 131.046875 175.648438 130.289062 171.519531 129.5625 167.390625 C 128.960938 163.992188 131.183594 161.320312 134.703125 161.21875 C 136.203125 161.175781 137.703125 161.207031 139.203125 161.207031 Z M 164.921875 184.742188 L 160.15625 184.742188 C 160.058594 184.742188 159.960938 184.742188 159.875 184.742188 C 157.507812 184.730469 157.265625 184.445312 157.464844 187.121094 C 157.699219 190.285156 157.917969 193.445312 158.179688 196.605469 C 158.296875 197.976562 158.609375 198.214844 159.945312 198.128906 C 162.175781 197.984375 164.40625 197.832031 166.636719 197.667969 C 168.121094 197.558594 169.597656 197.386719 171.082031 197.292969 C 172.046875 197.238281 172.730469 197.089844 172.335938 195.835938 C 172.171875 195.320312 172.277344 194.722656 172.269531 194.160156 C 172.226562 191.460938 172.160156 188.742188 172.15625 186.03125 C 172.15625 185.058594 171.742188 184.71875 170.804688 184.734375 C 168.847656 184.769531 166.886719 184.742188 164.921875 184.742188 Z M 185.828125 167.347656 C 183.589844 167.347656 181.347656 167.371094 179.109375 167.335938 C 178.167969 167.324219 177.734375 167.644531 177.789062 168.628906 C 177.957031 171.792969 178.089844 174.957031 178.238281 178.117188 C 178.269531 178.808594 178.65625 179.082031 179.324219 179.082031 C 180.441406 179.074219 181.5625 179.082031 182.683594 179.082031 C 185.769531 179.082031 188.855469 179.070312 191.925781 179.082031 C 192.800781 179.082031 193.414062 178.800781 193.433594 177.851562 C 193.507812 174.675781 193.550781 171.503906 193.59375 168.332031 C 193.59375 167.65625 193.25 167.332031 192.550781 167.335938 C 190.3125 167.355469 188.070312 167.347656 185.828125 167.347656 Z M 208.191406 167.347656 C 205.953125 167.347656 203.710938 167.367188 201.472656 167.347656 C 200.480469 167.335938 199.832031 167.648438 199.8125 168.746094 C 199.765625 171.832031 199.730469 174.90625 199.671875 177.988281 C 199.65625 178.847656 200.101562 179.097656 200.882812 179.097656 C 205.179688 179.085938 209.472656 179.097656 213.769531 179.097656 C 214.402344 179.097656 214.859375 178.863281 214.910156 178.164062 C 215.148438 175.007812 215.363281 171.851562 215.609375 168.695312 C 215.683594 167.753906 215.335938 167.328125 214.355469 167.34375 C 212.300781 167.375 210.246094 167.347656 208.191406 167.347656 Z M 163.894531 167.347656 C 161.652344 167.347656 159.410156 167.320312 157.167969 167.355469 C 155.816406 167.378906 155.734375 167.429688 155.816406 168.828125 C 155.996094 171.804688 156.273438 174.777344 156.492188 177.75 C 156.574219 178.84375 157.222656 179.097656 158.203125 179.097656 C 162.21875 179.070312 166.238281 179.0625 170.253906 179.109375 C 171.332031 179.121094 171.777344 178.765625 171.75 177.671875 C 171.675781 174.683594 171.609375 171.691406 171.625 168.707031 C 171.625 167.515625 171.035156 167.324219 170.058594 167.339844 C 168.003906 167.367188 165.949219 167.34375 163.894531 167.347656 Z M 185.917969 184.746094 C 183.863281 184.746094 181.800781 184.765625 179.746094 184.734375 C 178.875 184.722656 178.304688 184.894531 178.359375 185.949219 C 178.53125 189.304688 178.660156 192.667969 178.8125 196.023438 C 178.84375 196.6875 179.15625 197.042969 179.871094 197.003906 C 183.226562 196.808594 186.585938 196.644531 189.941406 196.441406 C 190.589844 196.402344 191.226562 196.203125 191.871094 196.144531 C 192.722656 196.066406 192.925781 195.5625 192.933594 194.808594 C 192.960938 191.914062 192.96875 189.003906 193.070312 186.105469 C 193.117188 184.902344 192.527344 184.710938 191.539062 184.730469 C 189.664062 184.769531 187.792969 184.742188 185.917969 184.746094 Z M 206.964844 184.746094 C 204.8125 184.746094 202.664062 184.753906 200.511719 184.746094 C 199.753906 184.746094 199.265625 184.9375 199.257812 185.832031 C 199.230469 188.824219 199.167969 191.808594 199.121094 194.8125 C 199.109375 195.660156 199.507812 195.929688 200.347656 195.871094 C 203.242188 195.679688 206.125 195.554688 209.011719 195.371094 C 210.125 195.296875 211.230469 195.089844 212.34375 195.011719 C 213.042969 194.957031 213.324219 194.570312 213.417969 193.960938 C 213.53125 193.222656 213.664062 192.492188 213.734375 191.753906 C 213.90625 189.894531 214.027344 188.035156 214.210938 186.179688 C 214.332031 184.957031 214.226562 184.777344 212.859375 184.753906 C 210.898438 184.710938 208.9375 184.738281 206.964844 184.738281 Z M 145.1875 184.746094 C 143.875 184.746094 142.5625 184.726562 141.25 184.746094 C 139.34375 184.777344 139.234375 184.808594 139.5 186.621094 C 140.046875 190.3125 140.703125 193.984375 141.347656 197.660156 C 141.464844 198.328125 141.789062 198.917969 142.628906 198.886719 C 145.246094 198.796875 147.871094 198.773438 150.484375 198.570312 C 151.867188 198.464844 152.027344 198.183594 151.945312 196.746094 C 151.742188 193.480469 151.464844 190.21875 151.207031 186.957031 C 151.183594 186.679688 151.011719 186.417969 150.996094 186.144531 C 150.925781 185.136719 150.507812 184.648438 149.402344 184.71875 C 148.003906 184.804688 146.59375 184.742188 145.1875 184.738281 Z M 172.847656 208.894531 L 172.695312 208.894531 C 172.695312 207.300781 172.714844 205.707031 172.695312 204.117188 C 172.683594 203.171875 172.1875 202.816406 171.230469 202.960938 C 170.125 203.113281 169.003906 203.171875 167.886719 203.246094 C 165.378906 203.421875 162.855469 203.613281 160.335938 203.730469 C 159.339844 203.777344 159.046875 204.238281 159.121094 205.148438 C 159.371094 208.21875 159.59375 211.292969 159.832031 214.371094 C 159.90625 215.332031 160.617188 215.28125 161.273438 215.238281 C 164.726562 215.015625 168.171875 214.75 171.625 214.554688 C 172.628906 214.5 172.878906 213.996094 172.863281 213.117188 C 172.824219 211.703125 172.847656 210.296875 172.847656 208.894531 Z M 142.683594 167.347656 C 140.910156 167.347656 139.136719 167.378906 137.367188 167.335938 C 136.367188 167.316406 136.015625 167.722656 136.191406 168.6875 C 136.75 171.695312 137.328125 174.703125 137.832031 177.722656 C 138.007812 178.78125 138.566406 179.105469 139.550781 179.097656 C 142.71875 179.074219 145.890625 179.066406 149.058594 179.097656 C 150.082031 179.105469 150.34375 178.613281 150.269531 177.714844 C 150.03125 174.75 149.789062 171.78125 149.582031 168.816406 C 149.511719 167.78125 149.050781 167.316406 147.996094 167.339844 C 146.226562 167.375 144.453125 167.347656 142.683594 167.347656 Z M 192.503906 207.636719 C 192.503906 205.890625 192.519531 204.292969 192.503906 202.703125 C 192.503906 202.042969 192.203125 201.773438 191.4375 201.832031 C 188.828125 202.023438 186.207031 202.097656 183.59375 202.261719 C 182.386719 202.339844 181.191406 202.5625 179.980469 202.636719 C 179.109375 202.6875 178.898438 203.128906 178.914062 203.90625 C 178.976562 206.527344 178.988281 209.152344 179.046875 211.777344 C 179.058594 212.234375 179.109375 212.753906 179.332031 213.128906 C 179.523438 213.445312 179.996094 213.800781 180.332031 213.785156 C 182.664062 213.679688 185 213.539062 187.320312 213.296875 C 188.964844 213.121094 190.585938 212.773438 192.21875 212.503906 C 192.3125 210.828125 192.414062 209.152344 192.503906 207.636719 Z M 198.675781 207.011719 L 198.601562 207.011719 C 198.601562 208.226562 198.585938 209.441406 198.601562 210.65625 C 198.625 212.28125 198.640625 212.355469 200.109375 212.234375 C 203.734375 211.941406 207.351562 211.570312 210.972656 211.238281 C 211.59375 211.179688 212.011719 210.976562 212.066406 210.253906 C 212.257812 207.652344 212.527344 205.046875 212.671875 202.445312 C 212.765625 200.785156 212.539062 200.644531 210.980469 200.792969 C 210.050781 200.878906 209.121094 200.953125 208.1875 200.984375 C 206.226562 201.0625 204.253906 201.015625 202.300781 201.1875 C 198.726562 201.507812 198.730469 201.558594 198.675781 205.046875 C 198.667969 205.695312 198.675781 206.347656 198.675781 207.003906 Z M 228.476562 167.347656 C 226.980469 167.347656 225.480469 167.328125 223.984375 167.347656 C 222.332031 167.375 222.207031 167.375 222.007812 168.953125 C 221.632812 171.910156 221.425781 174.890625 221.132812 177.859375 C 221.058594 178.664062 221.359375 179.085938 222.21875 179.082031 C 225.214844 179.070312 228.210938 179.058594 231.207031 179.09375 C 232.238281 179.105469 232.71875 178.6875 232.890625 177.664062 C 233.390625 174.632812 233.949219 171.609375 234.507812 168.585938 C 234.65625 167.773438 234.425781 167.332031 233.542969 167.339844 C 231.847656 167.359375 230.15625 167.347656 228.476562 167.347656 Z M 153.535156 214.222656 C 153.332031 211.523438 153.136719 208.820312 152.914062 206.121094 C 152.882812 205.753906 152.683594 205.402344 152.644531 205.035156 C 152.554688 204.207031 152.128906 203.941406 151.316406 204.003906 C 148.988281 204.1875 146.65625 204.3125 144.324219 204.46875 C 142.871094 204.566406 142.6875 204.738281 142.925781 206.164062 C 143.457031 209.289062 144.050781 212.40625 144.601562 215.53125 C 144.738281 216.300781 145.128906 216.710938 145.929688 216.648438 C 147.882812 216.496094 149.839844 216.335938 151.796875 216.1875 C 153.625 216.046875 153.625 216.050781 153.535156 214.230469 Z M 226.183594 184.742188 C 224.683594 184.742188 223.183594 184.757812 221.6875 184.742188 C 220.863281 184.726562 220.546875 185.109375 220.488281 185.910156 C 220.292969 188.417969 220.042969 190.925781 219.824219 193.445312 C 219.726562 194.535156 219.960938 194.792969 220.980469 194.714844 C 222.472656 194.605469 223.953125 194.445312 225.445312 194.347656 C 226.566406 194.277344 227.703125 194.347656 228.808594 194.191406 C 229.253906 194.125 229.917969 193.660156 229.996094 193.273438 C 230.5 190.902344 230.863281 188.503906 231.277344 186.113281 C 231.433594 185.1875 231.128906 184.703125 230.121094 184.730469 C 228.804688 184.769531 227.496094 184.742188 226.183594 184.742188 Z M 220.167969 210.609375 C 222.183594 210.414062 224.039062 210.222656 225.898438 210.070312 C 226.652344 210.007812 227.125 209.6875 227.25 208.914062 C 227.71875 206.15625 228.199219 203.402344 228.621094 200.640625 C 228.65625 200.421875 228.300781 199.925781 228.140625 199.933594 C 225.34375 200.0625 222.550781 200.226562 219.757812 200.425781 C 219.054688 200.480469 218.972656 201.085938 218.925781 201.679688 C 218.75 203.910156 218.539062 206.140625 218.359375 208.375 C 218.320312 208.839844 218.214844 209.339844 218.359375 209.761719 C 218.472656 210.101562 218.867188 210.425781 219.214844 210.574219 C 219.53125 210.722656 219.953125 210.609375 220.167969 210.609375 Z M 220.167969 210.609375 " fill-opacity="1" fill-rule="nonzero"/></g><g clip-path="url(#bfeba4ccfc)"><path fill="#ffffff" d="M 187.5625 241.054688 C 173.21875 241.054688 158.871094 241.023438 144.527344 241.082031 C 141.632812 241.09375 139.246094 240.25 137.246094 238.148438 C 134.441406 235.199219 134.230469 230.523438 136.226562 226.914062 C 136.953125 225.605469 137.769531 224.339844 138.410156 222.992188 C 138.726562 222.324219 138.835938 221.621094 138.738281 220.890625 C 136.828125 210.144531 134.84375 199.410156 132.9375 188.664062 C 131.167969 178.742188 129.464844 168.808594 127.71875 158.882812 C 127.140625 155.570312 126.535156 152.265625 125.996094 148.949219 C 125.789062 147.6875 125.226562 147.023438 123.890625 146.804688 C 120.207031 146.203125 116.539062 145.46875 112.875 144.792969 C 111.773438 144.589844 110.660156 144.441406 109.570312 144.203125 C 107.832031 143.816406 106.75 142.375 106.925781 140.769531 C 107.121094 139.09375 108.664062 137.839844 110.554688 138.070312 C 112.871094 138.359375 115.160156 138.824219 117.457031 139.242188 C 121.496094 139.972656 125.527344 140.75 129.574219 141.445312 C 130.554688 141.613281 131.023438 142 131.1875 143.011719 C 131.640625 145.773438 132.207031 148.515625 132.710938 151.269531 C 134.191406 159.4375 135.695312 167.605469 137.132812 175.785156 C 138.929688 185.988281 140.652344 196.203125 142.4375 206.40625 C 143.308594 211.367188 144.246094 216.316406 145.164062 221.257812 C 145.40625 222.566406 145.375 223.730469 144.566406 224.925781 C 143.476562 226.550781 142.75 228.417969 141.671875 230.058594 C 140.386719 232.011719 141.550781 235.109375 144.53125 234.839844 C 145.179688 234.785156 145.839844 234.839844 146.496094 234.839844 L 230.320312 234.839844 C 231.070312 234.839844 231.832031 234.78125 232.566406 234.886719 C 232.96875 234.945312 233.34375 235.074219 233.695312 235.273438 C 234.042969 235.476562 234.34375 235.738281 234.589844 236.058594 C 234.839844 236.375 235.019531 236.730469 235.128906 237.117188 C 235.238281 237.507812 235.273438 237.902344 235.230469 238.304688 C 235.078125 239.996094 234.082031 240.9375 232.285156 241.042969 C 231.539062 241.085938 230.785156 241.054688 230.035156 241.054688 Z M 187.5625 241.054688 " fill-opacity="1" fill-rule="nonzero"/></g><g clip-path="url(#dbf328eb5c)"><path fill="#ffffff" d="M 212.109375 254.09375 C 211.722656 249.269531 216.351562 243.625 222.320312 243.71875 C 228 243.808594 232.710938 247.792969 232.792969 253.84375 C 232.871094 259.558594 228.933594 264.394531 222.4375 264.394531 C 215.6875 264.394531 211.878906 258.773438 212.109375 254.09375 Z M 222.523438 249.355469 C 219.722656 249.355469 217.671875 251.367188 217.714844 254.089844 C 217.761719 256.699219 219.976562 258.828125 222.65625 258.832031 C 224.84375 258.832031 227.261719 256.273438 227.242188 253.972656 C 227.214844 251.507812 225.019531 249.363281 222.515625 249.355469 Z M 222.523438 249.355469 " fill-opacity="1" fill-rule="nonzero"/></g><g clip-path="url(#f813dace90)"><path fill="#ffffff" d="M 164.394531 254.125 C 164.375 259.773438 159.78125 264.511719 154.351562 264.484375 C 148.429688 264.453125 144.046875 259.878906 143.878906 253.9375 C 143.726562 248.417969 148.703125 243.625 154.234375 243.667969 C 159.539062 243.714844 164.886719 248.589844 164.394531 254.125 Z M 158.785156 254.378906 C 158.90625 251.679688 157.125 249.523438 154.652344 249.363281 C 151.824219 249.191406 149.710938 251.027344 149.535156 253.6875 C 149.355469 256.421875 151.183594 258.59375 153.972656 258.738281 C 154.273438 258.761719 154.574219 258.75 154.875 258.710938 C 155.175781 258.671875 155.46875 258.601562 155.757812 258.5 C 156.042969 258.402344 156.316406 258.273438 156.578125 258.121094 C 156.839844 257.964844 157.082031 257.785156 157.304688 257.582031 C 157.53125 257.378906 157.734375 257.15625 157.914062 256.910156 C 158.09375 256.667969 158.246094 256.40625 158.371094 256.132812 C 158.5 255.855469 158.597656 255.570312 158.667969 255.277344 C 158.738281 254.980469 158.777344 254.683594 158.785156 254.378906 Z M 158.785156 254.378906 " fill-opacity="1" fill-rule="nonzero"/></g><g clip-path="url(#11c7b3be21)"><g clip-path="url(#b5ad033085)"><g clip-path="url(#311987008b)"><g transform="matrix(1, 0, 0, 1, 120, 214)"><g clip-path="url(#32651b90e6)"><g clip-path="url(#b84753ba88)"><g clip-path="url(#dafd61aca2)"><g clip-path="url(#38c1fb1f29)"><path fill="#ffffff" d="M 3.800781 0.5625 L 4.675781 5.292969 L 0.820312 6.007812 L -0.0546875 1.277344 Z M 3.800781 0.5625 " fill-opacity="1" fill-rule="nonzero"/></g></g></g></g></g></g></g></g><g transform="matrix(1, 0, 0, 1, 102, 148)"><g clip-path="url(#a59fe6689f)"><g fill="#ffffff" fill-opacity="1"><g transform="translate(6.826644, 3.091351)"><g><path d="M 14.625 -1.625 L 15.453125 2.859375 C 15.710938 4.210938 15.628906 5.34375 15.203125 6.25 C 14.773438 7.164062 13.910156 7.742188 12.609375 7.984375 C 11.171875 8.253906 10.03125 7.84375 9.1875 6.75 C 9.195312 8.882812 8.171875 10.140625 6.109375 10.515625 C 4.898438 10.742188 3.847656 10.503906 2.953125 9.796875 C 2.066406 9.097656 1.484375 8.007812 1.203125 6.53125 L 0.1875 1.046875 Z M 9.578125 2.71875 L 9.640625 2.984375 C 9.773438 3.722656 10.003906 4.25 10.328125 4.5625 C 10.648438 4.875 11.101562 4.972656 11.6875 4.859375 C 12.664062 4.679688 13.023438 3.863281 12.765625 2.40625 L 12.703125 2.140625 Z M 3.328125 3.875 L 3.53125 4.90625 C 3.820312 6.519531 4.503906 7.226562 5.578125 7.03125 C 6.222656 6.90625 6.648438 6.613281 6.859375 6.15625 C 7.078125 5.707031 7.113281 5.078125 6.96875 4.265625 L 6.765625 3.234375 Z M 3.328125 3.875 "/></g></g></g><g fill="#ffffff" fill-opacity="1"><g transform="translate(8.835061, 13.947161)"><g><path d="M 7.3125 -0.9375 C 9.40625 -1.320312 11.304688 -0.9375 13.015625 0.21875 C 14.722656 1.375 15.765625 2.957031 16.140625 4.96875 C 16.515625 6.988281 16.109375 8.835938 14.921875 10.515625 C 13.742188 12.203125 12.101562 13.238281 10 13.625 C 7.882812 14.019531 5.976562 13.648438 4.28125 12.515625 C 2.582031 11.390625 1.539062 9.796875 1.15625 7.734375 C 0.757812 5.617188 1.148438 3.742188 2.328125 2.109375 C 3.515625 0.472656 5.175781 -0.539062 7.3125 -0.9375 Z M 7.96875 2.625 C 7.207031 2.769531 6.535156 3.015625 5.953125 3.359375 C 5.367188 3.703125 4.914062 4.203125 4.59375 4.859375 C 4.269531 5.523438 4.1875 6.285156 4.34375 7.140625 C 4.570312 8.367188 5.164062 9.21875 6.125 9.6875 C 7.082031 10.15625 8.15625 10.28125 9.34375 10.0625 C 10.519531 9.84375 11.46875 9.335938 12.1875 8.546875 C 12.914062 7.753906 13.171875 6.753906 12.953125 5.546875 C 12.734375 4.359375 12.140625 3.519531 11.171875 3.03125 C 10.210938 2.539062 9.144531 2.40625 7.96875 2.625 Z M 7.96875 2.625 "/></g></g></g><g fill="#ffffff" fill-opacity="1"><g transform="translate(11.527, 28.497509)"><g><path d="M 4.609375 8.203125 C 4.691406 8.703125 4.847656 9.171875 5.078125 9.609375 C 5.316406 10.046875 5.53125 10.367188 5.71875 10.578125 L 6.015625 10.859375 L 3.484375 12.78125 C 3.429688 12.738281 3.367188 12.679688 3.296875 12.609375 C 3.222656 12.535156 3.078125 12.363281 2.859375 12.09375 C 2.648438 11.832031 2.453125 11.539062 2.265625 11.21875 C 2.085938 10.90625 1.898438 10.484375 1.703125 9.953125 C 1.515625 9.421875 1.367188 8.863281 1.265625 8.28125 C 1.015625 6.9375 1.109375 5.601562 1.546875 4.28125 C 1.984375 2.957031 2.707031 1.820312 3.71875 0.875 C 4.738281 -0.0703125 5.925781 -0.671875 7.28125 -0.921875 C 8.300781 -1.109375 9.3125 -1.070312 10.3125 -0.8125 C 11.320312 -0.550781 12.226562 -0.125 13.03125 0.46875 C 13.832031 1.0625 14.519531 1.800781 15.09375 2.6875 C 15.675781 3.570312 16.0625 4.515625 16.25 5.515625 C 16.414062 6.453125 16.457031 7.332031 16.375 8.15625 C 16.300781 8.988281 16.1875 9.585938 16.03125 9.953125 L 15.78125 10.515625 L 12.71875 9.625 C 12.769531 9.539062 12.832031 9.40625 12.90625 9.21875 C 12.976562 9.03125 13.050781 8.675781 13.125 8.15625 C 13.195312 7.632812 13.191406 7.125 13.109375 6.625 C 12.953125 5.820312 12.6875 5.128906 12.3125 4.546875 C 11.9375 3.960938 11.503906 3.523438 11.015625 3.234375 C 10.523438 2.941406 10.019531 2.742188 9.5 2.640625 C 8.976562 2.546875 8.46875 2.546875 7.96875 2.640625 C 6.875 2.847656 5.96875 3.441406 5.25 4.421875 C 4.53125 5.410156 4.316406 6.671875 4.609375 8.203125 Z M 4.609375 8.203125 "/></g></g></g><g fill="#ffffff" fill-opacity="1"><g transform="translate(13.817248, 40.876659)"><g><path d="M 6.59375 3.265625 L 0.796875 4.34375 L 0.1875 1.046875 L 14.625 -1.625 L 15.234375 1.671875 L 9.484375 2.734375 L 10.359375 7.390625 L 16.109375 6.328125 L 16.71875 9.625 L 2.28125 12.296875 L 1.671875 9 L 7.46875 7.921875 Z M 6.59375 3.265625 "/></g></g></g><g fill="#ffffff" fill-opacity="1"><g transform="translate(16.136651, 53.413397)"><g><path d="M 14.625 -1.625 L 15.609375 3.65625 C 15.878906 5.125 15.71875 6.382812 15.125 7.4375 C 14.539062 8.488281 13.523438 9.144531 12.078125 9.40625 C 10.628906 9.675781 9.410156 9.425781 8.421875 8.65625 C 7.429688 7.894531 6.800781 6.789062 6.53125 5.34375 L 6.15625 3.359375 L 0.796875 4.34375 L 0.1875 1.046875 Z M 8.78125 2.859375 L 8.953125 3.78125 C 9.085938 4.519531 9.347656 5.097656 9.734375 5.515625 C 10.117188 5.941406 10.648438 6.09375 11.328125 5.96875 C 12.015625 5.84375 12.460938 5.515625 12.671875 4.984375 C 12.878906 4.453125 12.914062 3.816406 12.78125 3.078125 L 12.609375 2.15625 Z M 8.78125 2.859375 "/></g></g></g></g></g></svg>